<svg id="Layer_1" data-name="Layer 1" xmlns="http://www.w3.org/2000/svg" viewBox="0 0 100 100"><defs><style>.cls-1{fill:#4d4d4d}</style></defs><path class="cls-1" d="M71.62 14.88C66.48 5.07 55.16-1.21 44 1.67 34.85 3.55 26.69 11 25.41 20.56a24.54 24.54 0 0012.17 24.27A26.11 26.11 0 0046 47.71a88.5 88.5 0 00.92 9.43c-2.64 2.19-2.53 7.24-2.8 10.31-.6 6.74 0 13.53.18 20.28.15 3.09-.1 7.91 2.77 10 2.21 1.6 8 1.79 10.28.35 3.3-2 3.55-7.18 3.52-10.56a206.11 206.11 0 00-1.07-20.81c-.39-3.47-.28-8-3.6-10-.29-3-.14-6.08-.37-9.11a26.28 26.28 0 0011.07-4.87c9.1-6.96 9.83-18.12 4.72-27.85zm-14.37 53.5c.54 6.78 1.27 14 .9 20.83-.14 2.62-.27 4.71-2.57 6.09a6.79 6.79 0 01-5.25.61l-.18-.06c.27-.13.54-.27.82-.37a1 1 0 00.71-1.24 1 1 0 00-1.24-.71 20 20 0 00-2.22 1 4.4 4.4 0 01-.63-1.18q1.94-1.53 4-2.87c1.09-.7.08-2.45-1-1.75s-2.32 1.58-3.43 2.42c0-.48-.07-1-.08-1.45l4.08-2.81c1.06-.73.05-2.49-1-1.75L47 87.33v-1.44a31.64 31.64 0 014-3.22c1.07-.73.06-2.48-1-1.75a35.24 35.24 0 00-3 2.32l-.09-2.34a38.4 38.4 0 014-2.72 1 1 0 00-1-1.75c-1.07.63-2.1 1.32-3.1 2v-1.31l3.89-2.67c1.07-.73.06-2.48-1-1.75l-2.92 2v-1.3a1 1 0 00.26-.2 23.78 23.78 0 014.43-3.73c1.09-.71.08-2.46-1-1.75a26.27 26.27 0 00-3.61 2.82c0-.54.05-1.07.08-1.61a24 24 0 014.82-3.08c1.17-.57.15-2.31-1-1.75a25.23 25.23 0 00-3.61 2.15c0-.5.08-1 .14-1.54a25.16 25.16 0 013.81-2.21c1.18-.55.15-2.29-1-1.75A25.24 25.24 0 0047.56 62a4.58 4.58 0 014-3.6c5.31-.64 5.44 6.37 5.69 9.98zm-3.84-12.6a10.58 10.58 0 00-4 .18c-.42-2.61-.57-5.28-.73-7.93a28.32 28.32 0 004.47-.03c.17 2.56.09 5.18.26 7.78zm-.84-10.45c-11.14.87-21.77-5.94-24.17-17.14S33.62 6.55 44.75 4.27C56.43 1.25 67.32 9.43 71 20.16c4.51 13.17-5.33 24.15-18.43 25.17z"/><path class="cls-1" d="M48.88 5.93c-10.05.68-20.29 9.87-18.63 20.57 1.59 10.23 12.27 16.75 22.08 16.56 10.89-.22 18.16-7.6 16.64-18.72-1.38-10.05-9.71-18.71-20.09-18.41zm16.06 29.6c-2.83 4-7.93 5.4-12.62 5.5-8.37.17-17.65-5-19.82-13.5C30 17.65 39.52 8.59 48.88 8c8.46-.29 15.33 6 17.55 14 1.18 4.28 1.16 9.76-1.48 13.54z"/><path class="cls-1" d="M41.59 12.71a14.8 14.8 0 00-7.93 12c0 1.49.23 3.77 2 4.2A2.57 2.57 0 0038.55 27c.37-1.13.24-2.37.57-3.52a11.39 11.39 0 012.52-4.29c1.32-1.49 3.55-2.29 4.7-3.81a2.49 2.49 0 00-.12-3.14c-1.22-1.18-3.39-.16-4.63.47zm.68 3.11a16.2 16.2 0 00-4 4.64A12 12 0 0037 23.73a10.38 10.38 0 01-.17 1.1c-.33 1-1.13 2.64-1.11-.11a12.64 12.64 0 014.81-8.9c.45-.36 3.93-2.65 3.84-1.44a15 15 0 01-2.1 1.43zm7.4-5.73l-.2.08a2.93 2.93 0 00-.86 4.46 2.84 2.84 0 004.52-.36 3 3 0 00-.13-3.11 2.64 2.64 0 00-3.33-1.07zm1.56 3.28a.79.79 0 01-.83.19.88.88 0 010-1.59c.36-.12.63-.14.84.12a1.43 1.43 0 01.25.95.24.24 0 010 .06 1.41 1.41 0 01-.27.27zm.26-.37z"/></svg>