<svg id="Layer_1" data-name="Layer 1" xmlns="http://www.w3.org/2000/svg" viewBox="0 0 100 100"><defs><style>.cls-1{fill:#4d4d4d}</style></defs><path class="cls-1" d="M99.48 69a1.53 1.53 0 00-.24-.32 50.58 50.58 0 00-8-6.77 1.45 1.45 0 00-1.46 0 10.66 10.66 0 00-.94.57c-1.21-1.24-2.4-2.79-4.21-2.37a3.91 3.91 0 00-1.27.61c-2.78-4-3.94-8.26-5.4-12.87a28.77 28.77 0 00-6.77-11C69 34.59 66 30.65 62.6 30.19a5.61 5.61 0 00-5.48 2.7c-3.33-2.05-7.49-1.08-9 2.47a6.31 6.31 0 00-8 2.61c-5.94-5.78-11-12.87-17.63-17.76-4.7-3.45-12-.32-9.13 6 2 4.25 6.42 7.43 9.63 10.71 2.27 2.31 4.55 4.58 6.74 7 1.71 1.86 3.48 3.67 5.26 5.46C32.11 57.25 35 64.94 43 68.4c4.08 1.77 8.4 2.41 12.74 3.19 4 .72 7 3.32 9.78 6.11a3.66 3.66 0 00-.52 1.08c-.5 1.86 1.45 3.64 2.81 5l-.43.5a1.48 1.48 0 000 2c2.71 2.76 5.26 5.66 8 8.43a1.49 1.49 0 001.75.23c2.89-1.36 5.23-4.37 7.38-6.64 2.65-2.8 5.25-5.53 8-8.19C94.6 78.13 102 72.8 99.48 69zm-32 6.54c-3.91-3.77-7.49-6.17-13-7.11-9.3-1.57-20.69-5.81-17.35-16.93l4.76 4.7a1.44 1.44 0 002-2C37.7 48 31.65 41.64 25.46 35.38c-2.69-2.72-6.92-5.69-8.78-9-1.17-2.11-1.43-4.27 1.43-4.44 1.81-.11 2.33.38 3.62 1.49 1.09.94 2.05 2 3.07 3 5 5 9.53 10.35 14.76 15.08a1.46 1.46 0 002.44-.67q1-4.3 6-2.29a1.46 1.46 0 002.46-1q1-4.58 6.24-1.32a1.45 1.45 0 002.41-.64c1.61-6.32 8.74 1.95 10.3 3.65a25.64 25.64 0 015.6 9c1.79 5.18 2.85 9.93 6.13 14.45l-.42.36a73.36 73.36 0 00-6 5.39c-1.73 1.69-3.39 3.45-5 5.22-.64.5-1.44 1.19-2.24 1.93zm.65 4.06c0-.61 1.37-1.68 2-2.37 2.14-2.33 4.29-4.65 6.55-6.86a85.56 85.56 0 017.57-6.59c1.42-1.1 1.31-.63 2.32.52-2.21 2.13-4.16 4.84-6.12 6.76-3.61 3.54-7.29 6.78-10.68 10.44a16.18 16.18 0 01-1.64-1.84zm8.45 12.17c-2.09-2.18-4.13-4.42-6.22-6.61 4.74-5.46 10.27-10 15.22-15.25 1-1.09 2-2.21 3.06-3.26.6-.6 1.92-1.67 1.83-1.67 1.25.06 5.79 4.79 6.73 5.73.38.51-15.92 17.47-20.62 21.11z"/><path class="cls-1" d="M74.89 82.79a1.2 1.2 0 00-.17.2 1.14 1.14 0 00-.13.22 3.18 3.18 0 00.82 4.49 3.31 3.31 0 004.5-1.06 3.74 3.74 0 00-.63-4.64c-1.39-1.31-3.34-.48-4.39.79zM78 85.55a1.12 1.12 0 01-1.44.35c-.77-.44-.41-1.25 0-1.82s1.1-.84 1.48-.22a1.51 1.51 0 01-.04 1.69zM32.23 23.2C33.55 11 17.37 7.84 10 14.82 1.73 22.61 5.37 39.34 18.45 38c1.37-.14 1.39-2.31 0-2.16C7.21 37 4.56 22.8 11.51 16.35c6.15-5.72 19.67-3.4 18.56 6.85-.15 1.38 2.02 1.37 2.16 0z"/><path class="cls-1" d="M22 39.84c-5.48 2.21-12.33.06-16.3-4.16C-.25 29.33 2 18.24 7.43 12.36A16.7 16.7 0 0127.9 9.2c6.2 3.37 10.48 12.52 6.7 19a1.08 1.08 0 001.87 1.09c4.1-7 .51-16.44-5.84-20.92A19 19 0 006.81 9.9c-6.5 6.17-9.28 17.43-4.15 25.35 4 6.11 13.14 9.42 20 6.67 1.24-.51.68-2.6-.66-2.08zm67.66 29.51a1.08 1.08 0 00-1.87 1.09l1.79 3.06a1.08 1.08 0 001.87-1.09zm3.14-.49a1.09 1.09 0 00-1.48-.39 1.11 1.11 0 00-.39 1.53l1.34 3a1.09 1.09 0 001.48.39 1.11 1.11 0 00.39-1.48z"/></svg>