<svg id="Layer_1" data-name="Layer 1" xmlns="http://www.w3.org/2000/svg" viewBox="0 0 100 100"><defs><style>.cls-1{fill:#4d4d4d}</style></defs><path class="cls-1" d="M96 9.16C87.42-2.37 72.21-2.19 61 5.1a75.08 75.08 0 00-15.77 14.55c-4 4.71-8.71 10.24-10.83 16.1-.12.33-.23.67-.32 1a48.38 48.38 0 00-16.46 11.82C12.42 54.15 6.8 60.43 3.27 67.22-2 77.28 0 89.45 9.21 96.68c10.5 8.25 25.13-.61 33.58-7.66A90.66 90.66 0 0058.71 71a61.52 61.52 0 005.5-9.15c12.35-2 21.07-11.49 27.61-21.61C97.74 31.11 103.5 19.18 96 9.16zM51.91 33.5c1-1.58 2.12-3 2.95-4 5.06-6.48 10.6-14.15 19-16.38 5.9-1.56 11.61 1.82 11.15 8.28-.25 3.58-2.1 7-4.18 9.85-4 5.49-8.62 11.09-14.55 14.57-1.68-7.07-6.78-12.97-14.37-12.32zm-4.76 27.88c-2 2.74-4 5.08-4.79 6.09-3.84 5.11-7.77 11.08-13.6 14.11-3.06 1.59-9.2 3.32-11.75.17-3.51-4.34.4-11.26 3-14.89 4.56-6.41 10.06-11.42 16.17-16.24a26.48 26.48 0 0010.97 10.76zm-19.69 34.3c-7.85 3-15.29 2.13-20.44-5C3.05 85.2 1.45 79 3.66 72.4c2.45-7.3 8.09-13.36 13-19.11s10.2-10.47 16.9-13.63v.53c-.69.28-1.38.58-2 .91a1.22 1.22 0 001.23 2.11c.29-.15.6-.27.9-.4v.17c-.51.3-1 .61-1.52.92-1.32.84-.1 2.95 1.23 2.11l.78-.47.07.25-.91.66a1.25 1.25 0 00-.44 1.67 1.23 1.23 0 001.67.44l.43-.36.08.21h-.07C26.8 54.87 14.42 64.62 13.42 76c-.33 3.71.82 8.35 4.64 9.42s8.45.14 11.92-1.71c8.57-4.54 13.75-14.43 19.85-21.58 3.82-4.49 9.39-16.8-1.25-17.37 0-.07-.05-.14-.08-.21h.13a1.22 1.22 0 000-2.44h-.42v-.21c.55 0 1.09.07 1.63.14a1.23 1.23 0 001.22-1.22 1.25 1.25 0 00-1.22-1.22l-1.08-.11.18-.51 1 .11a1.21 1.21 0 00.06-2.42l.23-.43c7.09-1.75 11.85 3.14 13.62 9.63s-.42 12.94-3.67 18.45C52.75 77 41.52 90.3 27.46 95.68zm37.85-36.43l.14-.41a1.24 1.24 0 00.58-.15l2-1c1.39-.73.16-2.84-1.23-2.11l-.46.24c.05-.23.09-.46.14-.69.78-.32 1.57-.65 2.34-1a1.23 1.23 0 00.44-1.67 1.25 1.25 0 00-1.7-.46l-.73.32v-.59l1.46-.55a1.25 1.25 0 00.85-1.5 1.23 1.23 0 00-1.5-.85l-.86.32c0-.27 0-.53-.08-.8C72 45.49 75.38 41.54 79.17 37c3-3.57 5.89-6.91 7.4-11.41 2.82-8.4-2.43-16.92-11.87-15.19-11.16 2-19.26 13.48-25.28 22.16-4.3 6.2-6.34 15.6 3.19 17.72a4.66 4.66 0 010 .49 4.4 4.4 0 00-1.61-.25 1.25 1.25 0 00-1.22 1.22A1.23 1.23 0 0051 53a2.81 2.81 0 011.09.17c-.08.21-.16.42-.25.63-.47-.12-.94-.23-1.4-.37a1.22 1.22 0 00-.65 2.35c.31.1.63.17 1 .25l-.41.72c-.5-.18-1-.35-1.5-.49a1.22 1.22 0 00-.65 2.35c.27.08.54.18.81.26l-.38.55a21.86 21.86 0 01-11.76-14c-1.71-6 .24-10.13 3.48-15.11C47.75 18.8 59.92 4.44 74.3 2.44c8.35-1.16 17.51 3 21.39 10.73 3.28 6.54.79 14.06-2.48 20-6.02 11.05-14.93 23.37-27.9 26.08z"/><path class="cls-1" d="M69.82 4.6a43.66 43.66 0 00-11.37 6.86c-1.2 1 .53 2.74 1.72 1.72A41.73 41.73 0 0171.05 6.7c1.44-.61.2-2.7-1.23-2.1zm4.98-1.05a1.22 1.22 0 000 2.45 1.22 1.22 0 000-2.45zM28.14 91.16a21.61 21.61 0 01-12.63 2c-1.54-.22-2.2 2.13-.65 2.35a24.52 24.52 0 0014.51-2.22c1.41-.7.18-2.81-1.23-2.13zm4.58-2.24a1.22 1.22 0 000 2.44 1.22 1.22 0 000-2.44z"/></svg>