<svg id="Layer_1" data-name="Layer 1" xmlns="http://www.w3.org/2000/svg" viewBox="0 0 100 100"><defs><style>.cls-1{fill:#4d4d4d}</style></defs><path class="cls-1" d="M99.4 36.34c-1.92-5.23-7.95-4.23-12.6-4.39-7-.24-14.14.49-21.16.11-1.68-5.92-3.1-11.91-4.7-17.85-1.38-5.07-3.8-10.82-9.68-11.76-4.79-.77-7.5 2.2-9.09 6.33-3 7.76-4.71 15.81-8 23.47-7.86 0-15.84-.15-23.67.29-3.64.2-8.41.51-9.93 4.4-1.77 4.42 1.03 7.86 4.3 10.34 2.73 2.07 5.63 3.91 8.4 5.91 3.17 2.27 7.62 4.65 10 7.62s-1.27 9.1-2.42 12.37a94.15 94.15 0 00-3.62 10.68c-.95 4.11-1.29 10.36 2.85 13s9.68-2.4 12.92-4.68c5.89-4.21 11.33-9 17.42-12.9a150.23 150.23 0 0017.2 14.46c3.57 2.54 8.81 5.6 13.12 2.76 4-2.61 3.77-7.91 2.48-11.9-2.38-7.35-4.76-14.66-7.07-22.05 6-4.35 12-8.87 17.91-13.43 4.06-3.18 7.33-7.36 5.34-12.78zM85.93 51.08c-4.17 3.16-8.26 6.42-12.52 9.47a1.66 1.66 0 00-.74 1.82c1.53 4.94 2.64 10 4.27 14.9 1.3 3.91 5.14 9.72 3.52 13.89C76.53 101.22 55.69 80 51.7 76.1a1.64 1.64 0 00-2-.25 123.93 123.93 0 00-11.06 7.92c-3.85 3-8.54 7.77-13.24 9.46a4.12 4.12 0 01-5.24-1.64c-.61-.91-.41-3-.35-4.11a28.61 28.61 0 011.92-7.39C23.88 74 26.14 68 28.33 62a1.56 1.56 0 00-.41-1.57c-3.59-2.92-7.23-5.77-11-8.5-3.53-2.65-11.34-6.17-12.84-10.41-2.59-7.31 9.42-5.78 13.62-5.83 5.78-.07 11.56-.23 17.35-.23a1.28 1.28 0 001.52-.8 126.3 126.3 0 005.22-13.55c1.42-4.42 3-16.83 9.5-15.14 6.22 1.61 6.91 10.91 8.34 16.12 1.09 4 2.07 8 3.22 11.93a1.66 1.66 0 001.55 1.18c4.05.3 8.1 0 12.16-.11 4.68-.08 10.89-.95 15.42.33 12.51 3.58-2.86 13.24-6.05 15.66z"/><path class="cls-1" d="M29 40.43a27.92 27.92 0 00-7.21 5.1c-1.12 1.09.59 2.8 1.71 1.71a25.87 25.87 0 016.72-4.73c1.44-.68.21-2.76-1.22-2.08zM37.54 42a54.67 54.67 0 00-10.43 5.54c-1.28.87-.07 3 1.22 2.09a51.83 51.83 0 019.85-5.29c1.42-.55.82-2.89-.64-2.34z"/></svg>