<svg id="Layer_1" data-name="Layer 1" xmlns="http://www.w3.org/2000/svg" viewBox="0 0 100 100"><defs><style>.cls-1{fill:#4d4d4d}</style></defs><path class="cls-1" d="M98.24 5.33C81.9 11.38 66.55 19.74 50.75 27 33.89 34.79 17.4 43.33.68 51.39A1.42 1.42 0 001 54c11 1.55 21.73 3.91 32.5 6.42.2 11-.11 22 .07 33a1.42 1.42 0 002.62.71c5.71-8.19 11.46-16.38 17.59-24.26 8.51 5.13 17 10.25 25.13 16A1.42 1.42 0 0081 85c2.5-13.16 5.16-26 8.86-38.86S97.09 20.21 100 7.07c.18-.96-.69-2.13-1.76-1.74zM43.12 60.85a1.59 1.59 0 00-.67 1.15 16.7 16.7 0 00-1.37 3.82c-1.66 6.67-2.86 13.5-4.73 20.12 0-8.83.16-17.66 0-26.49C53 44.69 70.27 30.37 87.78 16.51Q72.13 32 56.47 47.37l-9.67 9.49a29.23 29.23 0 00-3.68 3.99zm48.13-49.74c-19.17 15-38 30.63-56.3 46.72-9.59-2.23-19.17-4.37-28.89-5.92 14.88-7.25 29.6-14.82 44.62-21.76 13.55-6.27 26.79-13.3 40.57-19.04zm-52.7 74.77C40.16 80 41.28 74 42.7 68a29.74 29.74 0 011.22-4.24q3.72 2.31 7.48 4.57C47 74.1 42.72 80 38.55 85.88zm48.6-40.5c-3.52 12.22-6.09 24.4-8.48 36.85-10.76-7.49-22.23-14-33.36-20.88.08-.11.16-.22.25-.33 1.3-1.54 3-2.89 4.39-4.3l9.76-9.59Q78 29.21 96.14 11.24c-2.65 11.47-5.73 22.83-8.99 34.14z"/><path class="cls-1" d="M25.28 51.15l10.14-5.59c1.19-.66.13-2.48-1.07-1.82l-10.13 5.59c-1.22.67-.13 2.48 1.06 1.82zm9.61-2.89l-4.77 2.48c-1.21.63-.14 2.45 1.07 1.82L36 50.08c1.16-.62.09-2.45-1.11-1.82z"/></svg>