<svg data-name="Layer 1" xmlns="http://www.w3.org/2000/svg" viewBox="0 0 100 100"><path d="M83.74 14.93C68.54 1.38 45.36-.4 27.66 8.82 9.5 18.28-2.49 38.37.44 59 3.79 82.63 30.93 94.82 52.2 95.34A48.69 48.69 0 0079.51 88C88 82.95 93.44 75.81 97.14 66.63c7.03-17.5.56-39.25-13.4-51.7zM97 51.73c-4.46.94-8.91 1.67-13.37 2.25 0-1.89-.07-3.82-.24-5.83a63.48 63.48 0 00-3.11-15.06 63.56 63.56 0 009.45-6.26A47.32 47.32 0 0197 51.73zm-73.36 2.75a50.44 50.44 0 012.69-19.13 88 88 0 0019.91 4.75 47.05 47.05 0 008 .36q.79 7.81 1.21 15.64l-5.24.19c-8.78.3-17.66.51-26.48.07-.03-.61-.07-1.25-.09-1.88zm30.3-17.13a47.73 47.73 0 01-10-.68 92.79 92.79 0 01-16.53-4.22c.64-1.5 1.37-3 2.19-4.52 4.55-8.42 10.89-16.47 19.41-21.1Q52.24 22 53.94 37.35zM52.15 6.8c11.91 4.42 20 13.68 24.36 24.85A57 57 0 0157 37.16Q55.28 21.89 52.15 6.8zm-1.9 52.55l5.38-.2q.23 5.4.29 10.82h-2.76a83.44 83.44 0 00-23.29 3.87 38.77 38.77 0 01-5.71-14.43c8.69.42 17.43.24 26.08-.06zM53.16 73h2.77q0 9.44-.54 18.89a42 42 0 01-23.68-15.41A80.37 80.37 0 0153.16 73zm-7.23 18.82a60.52 60.52 0 01-27-10 61.73 61.73 0 019.65-4.34 45.85 45.85 0 0017.35 14.34zM59 73.05a79.43 79.43 0 0115.66 1.85c-4 6.93-9 12.6-16.17 16.36q.51-9.1.51-18.21zm0-3q-.05-5.5-.29-11c7.29-.33 14.53-.79 21.74-1.6a37 37 0 01-4.25 14.74A82.17 82.17 0 0059 70zm-.44-14q-.42-7.87-1.22-15.71a60 60 0 0020.23-5.79 60.27 60.27 0 012.83 14.77c.12 1.73.17 3.4.15 5-7.31.87-14.64 1.34-22.03 1.68zM88 24.31a58.6 58.6 0 01-8.8 5.94C75.22 20.33 68.52 11.88 59 6.63a55.75 55.75 0 0116.73 6.54A38.63 38.63 0 0188 24.31zm-65.17-8.87A48.76 48.76 0 0143.24 6.9C36.37 11.88 31 19 27 26.39c-.89 1.64-1.67 3.27-2.36 4.91a43.16 43.16 0 01-11.08-7 49.43 49.43 0 019.27-8.86zm-11.1 11.28a47.8 47.8 0 0011.8 7.45 53.66 53.66 0 00-2.86 21.92v.11a128.32 128.32 0 01-17.9-2.39C2.46 44.28 6 34.64 11.73 26.72zM5.65 66.28A32 32 0 013 57a135 135 0 0018 2.29 40.6 40.6 0 005.84 15.64 62.53 62.53 0 00-10.52 5A37.81 37.81 0 015.65 66.28zm59.13 24.66c5.42-4 9.51-9.19 12.92-15.24a47.43 47.43 0 018.19 3.2 43.76 43.76 0 01-21.11 12.04zM88 76.55A49.65 49.65 0 0079.15 73a40.44 40.44 0 004.34-16c4.45-.57 8.9-1.28 13.34-2.19a36.71 36.71 0 01-.6 4.27A39.84 39.84 0 0188 76.55zM2.82 27.49A62 62 0 0116.54 10c1.1-1-.52-2.59-1.61-1.61A63.69 63.69 0 00.85 26.33c-.69 1.3 1.28 2.46 1.97 1.16zM3 19.24a26.5 26.5 0 014.87-6.59c1-1-.57-2.65-1.61-1.61A28.51 28.51 0 001 18.09c-.64 1.3 1.33 2.45 2 1.15zm88 64.52a37.35 37.35 0 01-15.52 10.88c-1.37.51-.78 2.71.61 2.2a39.61 39.61 0 0016.55-11.47c.95-1.11-.64-2.73-1.64-1.61zm-1.94 7.58a13.34 13.34 0 01-4.39 3.44c-1.33.63-.17 2.6 1.15 2A14.93 14.93 0 0090.68 93c.95-1.16-.68-2.78-1.62-1.66z" fill="#4d4d4d"/></svg>