<svg data-name="Layer 1" xmlns="http://www.w3.org/2000/svg" viewBox="0 0 100 100"><path d="M38.18 79.26c-3.82-.46-7.26 1.82-7.49 5.93s3 6.4 6.68 6.52 7.16-2.15 7-6a6.58 6.58 0 00-6.19-6.45zM38 88.63c-1.81.1-3.6-.4-4.12-2.33a3.28 3.28 0 013.9-4h.05a1.72 1.72 0 00.35.05 3.36 3.36 0 013 2.9c.45 2.03-1.32 3.28-3.18 3.38zM82.76 79a5.93 5.93 0 00-6.54 6.29 6.81 6.81 0 002.67 5.23c1.38 1 3.11.94 4.73 1.06 3.56.26 5.69-3.77 5.06-6.93-.68-3.43-2.14-5.57-5.92-5.65zm.86 9.51c-2.11-.09-3.89-.36-4.26-2.86a2.92 2.92 0 013.4-3.57c1.86 0 2.28.63 2.7 2.33.38 1.54.3 4.23-1.84 4.13zm11.55-60.28c-9.24-1.89-19.34-1.37-28.72-2.1C52.21 25 38 24.15 23.74 23.63a27.22 27.22 0 00-1.66-5.15c-1.41-3.08-4.44-3.72-7.39-4.66a2.44 2.44 0 00-1.51-2.67A33.31 33.31 0 007.74 9C5.39 8.26-.07 7.15 0 11.28c.06 3.18 4.23 4.39 6.65 5.22 2 .69 4.92 1.41 6.66.11 1.88.63 3.59 1 5 2.45 1.68 1.79 1.77 4.29 2.32 6.68 1.16 5 2.48 10 3.84 15 2.27 8.32 4.74 16.6 6.62 25a6.2 6.2 0 00-4.31 6c.11 4.55 4.46 5.56 8.19 5.65 17.42.42 34.86.14 52.28.18a1.54 1.54 0 000-3.08H56.33q-8.22 0-16.45-.11c-2.14 0-7.81.85-9.42-1.12s.23-4.67 2.45-4.87c14.86.14 29.73-.05 44.59.12 3.63 0 9.86.7 12.45-2.54 1.1-1.38 1.42-3.46 1.94-5.09 1.11-3.5 2.27-7 3.39-10.49C97 45.09 99.4 39.35 100 33.75c.31-3.5-1.48-4.83-4.83-5.52zM7 14.19c-.92-.32-3.93-1.13-4.4-2.17-.36-.79.51-1.39 1.07-1.52a3 3 0 011.08.1 18.85 18.85 0 012.92.83c1.08.37 2.15.78 3.21 1.22s1.64.53 1.34 1.78C11.66 16 8 14.53 7 14.19zm89.83 18.1c.84 1.68-1.07 6-1.56 7.68-.13.46-.28.91-.41 1.37Q88.42 41 82 40.56c.77-3.46 1.61-6.89 2.56-10.29 4.29.03 11.32.08 12.29 2.02zM91.85 51l-.71 2.19q-5.85-.24-11.7-.41c.65-3.33 1.32-6.67 2-10q6.35.44 12.72.78-1.11 3.77-2.31 7.44zM66.64 65.59q.3-5.4.66-10.79l9.35.24c-.68 3.5-1.37 7-2.09 10.48q-3.95.06-7.92.07zm.83-13.1q.37-5.32.81-10.64 5.43.43 10.87.83c-.72 3.35-1.38 6.71-2 10.07zM34.15 65.34c-.86-3.88-1.83-7.74-2.86-11.59q4.42.18 8.85.32c.81 3.81 1.68 7.6 2.7 11.36zm-7.09-26.86q5.07.37 10.14.79c.81 4.16 1.6 8.33 2.45 12.49q-4.5-.15-9-.33c-1.18-4.33-2.41-8.63-3.59-12.95zm18.16 27c-1-3.74-1.9-7.51-2.71-11.29l9.77.28c.25 3.7.51 7.41.75 11.12l-7.81-.08zM42 51.83c-.85-4.11-1.64-8.24-2.44-12.37l11.71 1q.43 5.84.84 11.67zm-2.9-14.71c-.64-3.28-1.32-6.56-2.05-9.82q6.64.34 13.28.77c.27 3.35.51 6.7.76 10.06zm14.49 3.52l12.37 1q-.45 5.38-.82 10.77l-10.72-.26q-.42-5.75-.81-11.51zm28.54-10.4c-.92 3.36-1.74 6.75-2.5 10.17q-5.59-.4-11.18-.85.43-5.08.92-10.15 6.22.44 12.45.82zm-15.05-1q-.49 5.06-.92 10.13l-12.72-1.06c-.25-3.37-.5-6.74-.77-10.1q6.3.42 12.61.91zm-42.7-2.51q5.15.19 10.3.44c.74 3.24 1.42 6.49 2.06 9.75q-5.15-.42-10.32-.8L25.85 34c-.58-2.23-.99-4.75-1.47-7.27zm31 38.83c-.24-3.69-.49-7.38-.75-11.08l10.4.25q-.37 5.42-.67 10.85-4.52.02-9.01-.02zm33.38-4.84c-1.48 4.69-4.13 4.58-8.85 4.7l-2.94.06c.71-3.44 1.39-6.9 2.06-10.36q5.7.17 11.4.4-.88 2.59-1.71 5.2zM27.72 83c.59-1.35-1.4-2.53-2-1.17a8.23 8.23 0 001.17 8.69c.94 1.16 2.56-.49 1.63-1.63a5.79 5.79 0 01-.8-5.89zm-4.34 1.71a1.16 1.16 0 00-1.15-1.15 1.18 1.18 0 00-1.15 1.15 5.91 5.91 0 00.65 3.38 1.16 1.16 0 002-1.17 3.84 3.84 0 01-.35-2.21z" fill="#4d4d4d"/></svg>