<svg id="Layer_1" data-name="Layer 1" xmlns="http://www.w3.org/2000/svg" viewBox="0 0 100 100"><defs><style>.cls-1{fill:#4d4d4d}</style></defs><path class="cls-1" d="M92.35 5.4C86.76.2 81.47-1.31 74.3 1.66 68 4.29 63 10 58 14.58c-7.53 6.87-14.78 14-21.91 21.3Q25.77 46.42 15.82 57.33c-3 3.24-6.29 6.45-8.85 10.05a1.72 1.72 0 00-.27.37 1.67 1.67 0 00-.22.45C4.73 71.75 4 76.08 3.12 79.86A134.88 134.88 0 000 98.23c-.1 1.18 1.14 1.77 2.1 1.59 9.66-1.51 19.2-3.65 28.83-5.35 3.92-.69 5.62-3.39 8.37-6.23q6.88-7.12 13.7-14.29c8.5-8.87 17-17.74 25.64-26.48 7.12-7.2 17.2-15 20.59-24.93 2.54-7.32-1.77-12.37-6.88-17.14zM82.13 39.66c-3.95-3.27-7-7.08-10.51-10.85-3.74-4-7.74-7.66-11.76-11.33l2.2-2q11.18 11 22.07 22.27-1 .96-2 1.91zm-8.86 8.59c-7-7.9-15.16-14.68-23.09-21.62l2-1.89c8.42 6.18 15.57 14.32 22.91 21.7l-.84.84zM30.6 79.92c-3.14.19-6.29.19-9.44.28-.11-2.4-.09-6.22-1-8.44 5.67-5.56 10.56-11.63 16-17.42C42.25 47.79 48.73 41.58 55 35.25c3.28 2.87 6.52 5.78 9.63 8.81-11.02 12.23-22.26 24.3-34.03 35.86zM58 19.17l1.75 1.61a48 48 0 01-3.72 3.84c-.69-.55-1.41-1.08-2.12-1.61Q56 21.08 58 19.17zm8.08 14.6a38.57 38.57 0 003.64-3.32l.12.12c.69.74 1.36 1.47 2 2.2a29.08 29.08 0 01-3.41 3.39l-2.33-2.39zM64.34 32c-.68-.66-1.36-1.33-2.05-2q1.71-1.84 3.49-3.62 1.13 1.11 2.24 2.24A38.57 38.57 0 0164.34 32zm-3.89-3.65q-1.22-1.1-2.48-2.17a48 48 0 003.62-3.76q1.21 1.12 2.4 2.25-1.81 1.84-3.54 3.71zm9.75 9.54a29.07 29.07 0 003.35-3.31c.73.82 1.47 1.62 2.21 2.41q-1.65 1.62-3.16 3.37zm-41.08 10q9.16-9.66 18.67-19l5.38 4.68c-6.27 6.29-12.7 12.47-18.77 19C29 58.37 24.1 64.44 18.44 70a25.46 25.46 0 00-2.89-.44c-1.82-.33-3.64-.61-5.47-.85 5.34-7.51 12.74-14.19 19.03-20.83zm-12.6 46.24A71.75 71.75 0 005.73 83.37c.19-.88.38-1.76.58-2.63C7 77.65 7.59 74.06 8.83 71c2.63.24 6.75.29 9.06 1.47-.9-.29 0 1.65.15 2.92.26 2 .49 4 .73 6.07A1.26 1.26 0 0020 82.71c2.33-.09 4.74.06 7.06-.16 2.53-.23 2.44-.74 2.72 1.75.26 2.27.43 4.54.59 6.82-.29.1-.58.19-.87.27-4.26 1.06-8.61 1.95-12.98 2.74zm35.59-24q-5.89 6.15-11.79 12.28c-2.39 2.48-4.67 5.57-7.54 7.48-.18-2.62-.41-5.25-.8-7.85 11.9-11.66 23.27-23.87 34.45-36.24q2.33 2.35 4.53 4.82-9.48 9.71-18.86 19.52zm24.71-25.42q-1.25-1.26-2.5-2.54 1.52-1.75 3.17-3.38c.9.88 1.84 1.74 2.84 2.58-1.19 1.13-2.33 2.24-3.51 3.34zm18.38-21a49.32 49.32 0 01-8.76 11.7q-10.83-11.23-22-22.16l.48-.45C70 8.26 76.2 1.52 83.73 3.6c3.48 1 6.33 4 8.68 6.59 3.82 4.22 5.59 7.81 2.8 13.48z"/><path class="cls-1" d="M74.87 10.18c-.29-1.57-2.68-.9-2.39.66a49.81 49.81 0 001.71 6.62c.5 1.51 2.9.86 2.39-.66a49.83 49.83 0 01-1.71-6.62zm4.2-.85c-.5-1.51-2.9-.86-2.39.66l1.86 5.6c.5 1.51 2.9.86 2.39-.66z"/></svg>