<svg id="Layer_1" data-name="Layer 1" xmlns="http://www.w3.org/2000/svg" viewBox="0 0 100 100"><defs><style>.cls-1{fill:#4d4d4d}</style></defs><path class="cls-1" d="M48.84 35a14.86 14.86 0 00-13.36 15.24c.23 7.66 7.65 14.42 15.36 14.31a1.55 1.55 0 00.35 0c8-.77 13.6-6 13-14.36-.61-7.85-6.53-16.07-15.35-15.19zm10.64 22.07c-2.75-6.47-5.71-12.82-9-19a10.28 10.28 0 012.37.5c2.86 5 4.8 10.37 7.85 15.22a1.22 1.22 0 00.14.18 10.11 10.11 0 01-1.36 3.1zM61 48.3a15.27 15.27 0 01.21 1.93c-1.74-3.18-3.18-6.52-4.82-9.76A13.17 13.17 0 0161 48.3zM48.08 38.11c3.59 6.71 6.79 13.59 9.75 20.6a1.14 1.14 0 00.08.14 10 10 0 01-1.8 1.28l-10.5-21.35a10.55 10.55 0 012-.61zM47.14 61l-7.87-15.95a12.1 12.1 0 011.13-2q4.21 9.49 9.28 18.55a11.26 11.26 0 01-2.54-.6zm5 .52A224.83 224.83 0 0142 41.19a12 12 0 011.72-1.38L54.11 61a13.16 13.16 0 01-1.97.51zM38.45 51.06a10 10 0 010-2.85l5.46 11.05a13.13 13.13 0 01-5.46-8.2z"/><path class="cls-1" d="M74.33 20.78C63.24 10.77 44 9.71 31.24 16.67 18.62 23.55 9.13 40.33 12 54.77a57.08 57.08 0 004 12.85c2 4.14 5.42 7.38 8.74 10.49a37.18 37.18 0 0024.79 9.95c15.73-.56 30.62-9.18 36.61-24.17 5.93-14.84-.2-32.63-11.81-43.11zm1 5.41a48.09 48.09 0 019.08 16.55L74.1 24.8c.43.45.84.91 1.23 1.4zm9.12 33.92c-2.84-4.93-5.39-10-8.29-14.91a28.72 28.72 0 00-7.06-13.14C66.43 27 63.78 21.91 60.89 17q1.18.36 2.34.8c8.26 12.67 14.59 26.43 21.88 39.64-.18.89-.39 1.79-.65 2.67zm-1.81 4.69c-2-3.47-4.14-6.84-6-10.36.07-.54.13-1.08.17-1.63s.06-1.35.05-2c2.21 4 4.32 8.1 6.67 12-.29.7-.53 1.36-.88 2zm-2.27 3.93q-2.48-4.34-5.32-8.45a23.39 23.39 0 00.88-2.56c1.8 3.13 3.74 6.18 5.49 9.34q-.5.86-1.05 1.68zM49 73.34c-6-.46-11.85-2.37-16.39-6.54-4.72-4.34-6.5-11.9-6.27-18.13.5-13.58 14.25-24.34 27.62-21.9 11.59 2.1 20.34 13.38 19.92 25.12C73.4 65.21 61.4 73.49 49 73.34zm21.89 4.8q-2.18-3.63-4.44-7.22.94-.67 1.81-1.41a73.42 73.42 0 014.58 7.21q-.92.73-1.92 1.41zm-4.07 2.43c-1.44-2.44-3-4.81-4.47-7.24q1.17-.56 2.27-1.22 2.25 3.58 4.43 7.21c-.7.44-1.45.85-2.21 1.24zm-4.39 2c-1.47-2.53-3-5-4.6-7.47q1.27-.37 2.5-.85c1.47 2.46 3.06 4.85 4.52 7.32q-1.17.49-2.4.95zm-4 1.29l-5-7.83q1.08-.15 2.14-.37c1.63 2.51 3.22 5.06 4.73 7.64q-.91.25-1.87.51zm-4.52.92a98 98 0 01-5.39-8.53h2.51l5.15 8.13c-.75.11-1.51.24-2.27.35zm-4.37.41h-.48c-2-3.19-4-6.44-5.8-9.74q1.27.3 2.57.5c1.73 3.05 3.58 6.13 5.62 9.05-.64.07-1.28.12-1.92.14zm-13.21-3l-21.16-39.3c.16-.7.35-1.39.55-2.08 2.77 5 5.55 10 8.29 15.09.92 4.91 3 9.68 6.57 13 .44.41.9.78 1.36 1.15q4.1 6.85 8.31 13.64a32.9 32.9 0 01-3.92-1.54zM30.77 79c-5.93-9.86-11.35-19.7-16.43-30v-.93q.06-.87.17-1.73l18.31 34q-1.02-.65-2.05-1.34zM17.5 36.05c.7 1.3 1.56 2.53 2.31 3.8 1.35 2.3 2.59 4.66 3.77 7.05-.06.58-.11 1.17-.13 1.76s0 1.09 0 1.65L16.67 38c.26-.65.54-1.3.83-1.95zm2.88-5.18a99.48 99.48 0 014.86 9.45 24.67 24.67 0 00-1 3c-.66-1.27-1.33-2.53-2-3.77-1.12-2-2.68-3.89-3.43-6q.71-1.37 1.58-2.68zm3-3.86a83.08 83.08 0 014.78 8.07 26.43 26.43 0 00-1.66 2.67 99.5 99.5 0 00-4.68-8.82c.47-.65.99-1.3 1.53-1.93zm3.22-3.23C28 26.42 29.56 29 31 31.67c-.49.49-.95 1-1.4 1.52a83.09 83.09 0 00-4.72-7.82q.83-.82 1.69-1.59zm3.68-2.87c1.36 2.62 2.85 5.17 4.23 7.79q-.94.68-1.83 1.44c-1.43-2.61-2.94-5.18-4.38-7.79.62-.51 1.28-.98 1.95-1.44zm7.8-4q1.94 4 4.24 7.79c-.68.22-1.35.47-2 .74l-4.2-7.75c.6-.25 1.26-.51 1.93-.75zm4.63-1.26c1.75 2.52 3 5.34 4.47 8a25.72 25.72 0 00-2.66.45q-2.35-3.83-4.33-7.86 1.21-.31 2.49-.55zm4.89-.55a88 88 0 004.76 8.49 24.67 24.67 0 00-2.73-.1c-1.63-2.67-2.84-5.57-4.53-8.21q1.2-.11 2.46-.15zm-13.45 3.66l4.13 7.62q-1 .51-2 1.1c-1.37-2.6-2.86-5.14-4.21-7.75q1-.58 2-1.09a1.18 1.18 0 00.08.12zm9 65.51q-3.56-5.72-7-11.5a28.5 28.5 0 004.11 1.76c1.92 3.53 4 7 6.1 10.39q-1.58-.18-3.1-.49a1.19 1.19 0 00-.07-.16zm14.69-68.1c2.36 3.92 4.55 7.93 6.69 12a27 27 0 00-3.32-2c-2.18-3.48-4.19-7.07-6.33-10.58 1.03.17 2.02.36 3 .58zm8.94 3.21c.89.46 1.75 1 2.58 1.52a1.15 1.15 0 00.12.31l15.68 27.24a1.05 1.05 0 00.4.4c.08.87.13 1.74.13 2.62s0 1.52-.09 2.26c-6.21-11.48-11.87-23.28-18.78-34.35zm-14.66-4.1c2 3.12 3.77 6.33 5.66 9.48a25 25 0 00-2.61-.71A92 92 0 0150 15.14c.72.03 1.44.08 2.15.14zM23.09 72.35C19 68 15.82 61.18 14.73 54.62 18.29 61.6 22 68.41 26 75.17q-1.49-1.34-2.91-2.82zm51.49 2.95a73.44 73.44 0 00-4.5-7 1.18 1.18 0 00-.22-.23c.46-.46.9-.93 1.32-1.43q2.31 3.75 4.73 7.44-.64.61-1.32 1.21zm2.89-2.86q-2.5-3.79-4.86-7.67A23.58 23.58 0 0074 62.58q2.66 4 5 8.1c-.51.6-1 1.18-1.52 1.75z"/><path class="cls-1" d="M98.67 38.66C96.19 29.2 90.28 21 83.16 14.4 75.79 7.62 66.86 1.72 56.69.67c-10.81-1.12-24 .17-33.11 6.5-17.72 12.31-27 31.66-22.42 53.26C6.08 83.57 26.92 99.71 50.37 99.7c19.63.12 37.32-10 44.92-28.44 4.23-10.26 6.23-21.71 3.38-32.6zm-3.56 24.41c-3 10.42-8.3 19.78-17.42 25.91a48.37 48.37 0 01-27.32 7.8C31 96.79 13.21 85.26 6.17 67c-3.61-9.31-4.49-20.85-1.72-30.55 2.57-9 8-16 14.88-22.11 3.63-3.23 7.5-6.41 12.09-8.17 5.28-2 11.22-2.35 16.81-2.68C59.06 2.86 68 6 76.49 12.62 92.51 25 100.85 43 95.11 63.07z"/><path class="cls-1" d="M39.21 33.83c1.11-.84 0-2.74-1.1-1.89a26.3 26.3 0 00-4.59 4.38c-.88 1.08.66 2.64 1.55 1.55a24.12 24.12 0 014.14-4.04zm-1.58 2.76c-.94 1 .6 2.59 1.55 1.55a12.65 12.65 0 013.1-2.52 1.09 1.09 0 00-1.1-1.89 14.59 14.59 0 00-3.55 2.86z"/></svg>