<svg id="Layer_1" data-name="Layer 1" xmlns="http://www.w3.org/2000/svg" viewBox="0 0 100 100"><defs><style>.cls-1{fill:#4d4d4d}</style></defs><path class="cls-1" d="M23 82.23c4.21.06 8.95.58 9.42-4.57.58-6.28.11-12.88.16-19.19 0-3 1.74-10.17-2.07-11.61-2.17-.82-5.7-.41-8-.68a46.7 46.7 0 00-6.9-.18c-4 .12-6 .35-6 4.69 0 6.14-.55 12.28-.5 18.43-.27 2.8-.74 8.49.89 10.88 2.33 3.64 9.57 2.18 13 2.23zM15.12 49c3.18-.33 6.3.19 9.44.5 1.34.13 4.11-.36 5 .7.71.89 0 5.71 0 6.78q0 5.54-.1 11.08 0 3.39-.05 6.79c0 3.76-1.18 4.41-5 4.37-2.33 0-7.15.82-9.94-.17a16.91 16.91 0 002.14-2.16c.93-1.13-.68-2.75-1.62-1.62a15.79 15.79 0 01-2.36 2.3s-.06-.09-.08-.14a11 11 0 01-.54-3.63l3.8-3.29c1.11-1-.51-2.57-1.62-1.62L12 70.76c0-.63.08-1.21.12-1.68v-2c1.51-1.44 3.08-2.82 4.73-4.12 1.15-.91-.47-2.52-1.62-1.62s-2 1.66-3 2.53c0-.86.09-1.72.14-2.58l4.16-3.41c1.14-.93-.49-2.54-1.62-1.62l-2.38 1.95c0-.51.06-1 .08-1.53s0-.82 0-1.23l3.64-2.69c1.17-.86 0-2.85-1.15-2l-2.52 1.86v-1.17c.25-2.14.29-2.2 2.54-2.45zm26.39 30.36C43 82.8 47.72 82 50.72 81.94S60.33 83 63 81s1.23-9.2 1.25-12.05l.1-20.43q0-5 .05-9.94c0-1.53.49-4.26-.43-5.66-1.66-2.46-7.66-1.63-10.17-1.92s-8.91-1.17-11.24.56-1.09 8.55-1.15 11.19c-.17 7.1-.62 14.19-.54 21.3a68 68 0 00.13 8.76c.06 1.91-.29 4.71.51 6.55zm2.88-44.79c1.42-2.11 9.38-.46 11.39-.23 2.27.26 4.69-.5 5.55 1.5.77 1.78 0 6 0 7.94q0 9-.09 17.94v8.78c0 1.54.82 6.3-.08 7.6s-8.19 1.27-12.19 1l3.32-2.4c1.18-.85 0-2.84-1.15-2l-5.42 3.91a2.36 2.36 0 01-1.46-1.76c2.2-1.67 4.36-3.39 6.45-5.18 1.12-1-.5-2.57-1.62-1.62-1.63 1.39-3.3 2.73-5 4v-1.36c0-.46 0-.92-.07-1.38a42 42 0 016.71-6c1.19-.85 0-2.83-1.15-2a45.24 45.24 0 00-5.68 4.78v-2.4a52 52 0 015.73-5.33c1.15-.92-.48-2.52-1.62-1.62a52 52 0 00-4 3.58V58.7a30.82 30.82 0 015.38-4.48c1.23-.8.08-2.78-1.15-2A33.85 33.85 0 0044 55.63q0-1.42.1-2.83a32.34 32.34 0 015.48-4.7c1.21-.82.07-2.8-1.15-2a35.59 35.59 0 00-4.21 3.35q0-.7.05-1.41v-1.51a24.52 24.52 0 015-4.67c1.2-.83.06-2.82-1.15-2A27.39 27.39 0 0044.44 43v-2.21a29.13 29.13 0 014.33-3.67c1.2-.83.06-2.81-1.15-2a32.86 32.86 0 00-3.29 2.59c-.09-1.16-.24-2.71.06-3.14zm29.38 42.11c.2 2.45.49 4 2.94 4.91s5.56.6 8.13.68c3.12.09 6.65.32 9.59-1 3.88-1.73 2.29-8.21 2.31-11.86l.12-22.46q.06-11.23.14-22.74C97 21 98.65 13 94.9 11.58c-2.61-1-6.62-.61-9.46-.86-2.57-.23-6.32-.49-8.86.2-4 1.11-2.46 6.92-2.48 10.25-.1 14.29-.8 28.59-.58 42.83a82.57 82.57 0 00.25 12.68zm3.29-61.3c.58-2.4 4.9-1.8 7.23-1.69 1.92.09 6.76 0 8.38.74C94.51 15.28 94 16.86 94 19q0 7.8-.08 15.6-.09 18.13-.19 36.26c0 1.65.68 5.26 0 6.76-1.12 2.43-6.68 1.64-8.84 1.57-1.25 0-2.72.09-4.06 0 .47-.43.93-.86 1.36-1.33 1-1.08-.62-2.7-1.62-1.62a21.12 21.12 0 01-2.43 2.25 2.76 2.76 0 01-.63-.54c1.08-1.2 2.19-2.36 3.37-3.47s-.54-2.62-1.62-1.62c-.9.84-1.76 1.73-2.6 2.63q-.16-1-.25-2.15l4-3.3c1.14-.93-.49-2.54-1.62-1.62l-2.49 2v-1.39q3-2.26 6-4.64c1.14-.93-.48-2.53-1.62-1.62-1.39 1.13-2.8 2.22-4.23 3.3 0-.74.09-1.46.15-2.14v-1.08a46.35 46.35 0 014.86-3.83c1.21-.82.07-2.81-1.15-2S77.75 59 76.55 60v-2.44c1.39-1.06 2.78-2.12 4.14-3.22 1.14-.93-.48-2.53-1.62-1.62-.82.67-1.67 1.3-2.5 1.95v-2.73A40 40 0 0181.42 48c1.2-.83.06-2.81-1.15-2a44.38 44.38 0 00-3.62 2.82q0-2 .09-4A40.85 40.85 0 0180.15 42a1.18 1.18 0 00.41-1.56A1.15 1.15 0 0079 40q-1.12.83-2.19 1.73v-1.89a51.43 51.43 0 015.38-3.59 1.14 1.14 0 00-1.15-2c-1.44.83-2.82 1.74-4.16 2.7 0-.9 0-1.81.06-2.71v-.31l3.89-3.48c1.1-1-.52-2.59-1.62-1.62l-2.22 2q0-1.72.06-3.43a33 33 0 013.3-3 1.15 1.15 0 000-1.62 1.17 1.17 0 00-1.62 0c-.57.44-1.11.92-1.65 1.4v-3c1.49-1.12 2.93-2.28 4.32-3.52 1.1-1-.52-2.59-1.62-1.62-.9.8-1.82 1.56-2.76 2.31a10.52 10.52 0 01.04-2.97z"/><path class="cls-1" d="M98.53 86c-15 .58-30 .64-45.07.34C39.22 86 25 85 10.71 85.24c-1.46 0-4.79.63-5.9-.07-1.32-.84-1.22-4.17-1.28-5.41Q3.29 75 3.17 70.2C3 63.87 3 57.54 3.1 51.21c.15-12.91.41-25.81.15-38.72 0-2-3.09-2-3 0C.48 26.68.11 40.87 0 55.06c0 6.75 0 13.5.27 20.25C.44 79.37-1 86.57 4 88.11c2.55.79 5.73.19 8.35.14 3.69-.07 7.35 0 11 .11 8.09.34 16.17.64 24.26.85 17 .44 33.92.45 50.87-.2 2-.08 2.01-3.13.05-3.01z"/></svg>