<svg id="Layer_1" data-name="Layer 1" xmlns="http://www.w3.org/2000/svg" viewBox="0 0 100 100"><defs><style>.cls-1{fill:#4d4d4d}</style></defs><path class="cls-1" d="M85.67 44a12.62 12.62 0 00-4.51-16 11.78 11.78 0 00-14.78 1.62C65.57 13.07 43.95 4.39 29.17 9.25 12.31 14.8 7.95 33.32 15.85 47.37a12.69 12.69 0 00-15.7 14.5C2 74.94 15.49 75.56 26 75.28c1.92-.05 1.92-3 0-3-7 .19-16.3 1-20.85-5.54-2.34-3.34-3-8.42-1.06-12.11C7 49 14.48 48.5 19.15 52.14A1.49 1.49 0 0021.26 50C10.67 37.52 13.38 17.6 30 12.13c14-4.63 37 4.31 33 22.34-.34 1.56 2 2.75 2.73 1.15C68 30.9 72.6 27.57 78 29.79c6.1 2.52 8.16 10.91 3 15.49-1.07 1 .06 3 1.45 2.49 12.2-4.79 19.78 13.53 9.61 20.58-5.13 3.56-12.42 4.18-18.51 4.05-1.92 0-1.92 2.95 0 3 9.32.19 22.52-1.67 25.79-12C102.27 54.17 95 43.55 85.67 44z"/><path class="cls-1" d="M40.32 56.22a1.12 1.12 0 00-1.58 0c-2.88 3.44-5.82 6.81-8.51 10.39a1.13 1.13 0 001 1.68H34c.06 5.77-.1 11.54 0 17.31a1 1 0 00.51.9 1.07 1.07 0 00.6.22 86.76 86.76 0 009.23 0 1.14 1.14 0 001.12-1.12c-.1-5.76 0-11.53 0-17.29h2.43c.82 0 1.52-1 1-1.68-2.8-3.57-5.7-6.97-8.57-10.41zm-4.13 28.31c-.06-5.78.1-11.57 0-17.36a1.14 1.14 0 00-1.12-1.12h-1.6c2-2.49 4-4.89 6.05-7.31 2 2.43 4.08 4.86 6.06 7.34H44.3a1.13 1.13 0 00-1.12 1.12c0 5.79-.08 11.58 0 17.36-2.33.08-4.66.06-6.99-.03zm32.7-4.84h-2.43c0-5.76-.1-11.53 0-17.29a1.14 1.14 0 00-1.12-1.12 86.81 86.81 0 00-9.23 0 1.07 1.07 0 00-.6.22 1 1 0 00-.52.9c-.09 5.77.07 11.54 0 17.31h-2.76a1.13 1.13 0 00-1 1.68C54 85 57 88.28 59.77 91.77a1.12 1.12 0 001.58 0c2.85-3.33 5.49-6.83 8.33-10.16a1.13 1.13 0 00-.79-1.92zm-14.38 2.24h1.59a1.14 1.14 0 001.12-1.12c.09-5.78-.07-11.57 0-17.36 2.33-.09 4.66-.11 7 0-.07 5.79 0 11.58 0 17.36a1.13 1.13 0 001.12 1.12h1.19c-2 2.43-3.95 4.91-6 7.33-1.98-2.47-4.05-4.86-6.02-7.33zM33.93 19c1.42-.15 1.43-2.39 0-2.24-8.17.86-15 9.94-13.09 18 .34 1.4 2.49.81 2.16-.59-1.55-6.48 4.25-14.44 10.93-15.17z"/><path class="cls-1" d="M34.08 21.45a11.2 11.2 0 00-5.72 2.82c-1.07 1 .52 2.55 1.58 1.58a9.1 9.1 0 014.74-2.24c1.42-.24.81-2.39-.6-2.16z"/></svg>