<svg xmlns="http://www.w3.org/2000/svg" viewBox="0 0 185 34"><defs><style>.cls-1{fill:#2c3d49}</style></defs><g id="Слой_2" data-name="Слой 2"><path class="cls-1" d="M184.5 1.28v31.44H44.39V1.28H184.5m1-1H43.39v33.44H185.5V.28z"/><path class="cls-1" d="M64.88 14.41a7.68 7.68 0 01-1.8 5.34 6.59 6.59 0 01-5.16 2.06q-.81 0-2.45-.06T53 21.68c-.3 0-.45.2-.45.58s0 1.26.09 2.26.09 1.76.09 2.26c0 .16-.09.24-.27.24s-.5 0-.9-.06-.7-.06-.9-.06h-1.49c-.24 0-.36-.15-.36-.44q0-1.55.14-4.67t.13-4.69q0-4.43-.33-9.52v-.13q0-.31.37-.31h4.63q.67 0 2-.06c.89 0 1.56-.06 2-.06a6.79 6.79 0 015.15 2.16 7.31 7.31 0 011.98 5.23zm-3.58.21a4.9 4.9 0 00-1.15-3.41 4.19 4.19 0 00-3.29-1.34q-.65 0-2.33.11a7.29 7.29 0 00-2 .23 48.78 48.78 0 00-.1 4.89v3.58c0 .09.1.15.31.2a32.88 32.88 0 004.33.16 3.94 3.94 0 003.1-1.24 4.65 4.65 0 001.13-3.18zm20.99 12.24q0 .11-.23.11h-3.42a.54.54 0 01-.5-.35q-.45-1-2.58-6a1.18 1.18 0 00-1-.63h-1.33q-2 0-2.33.06c-.2 0-.3.27-.3.72q0 1 .09 3t.09 3c0 .2-.09.3-.28.3S70 27 69.64 27a8.32 8.32 0 00-.87-.06h-1.48c-.24 0-.36-.11-.36-.33q0-1.58.15-4.74t.15-4.74q0-4.49-.33-9.57v-.18q0-.28.6-.28 1.22 0 3.66-.06T74.79 7a7.92 7.92 0 015.06 1.5 5.66 5.66 0 012.1 4.72 7.9 7.9 0 01-.57 3.31 6.47 6.47 0 01-2.22 2.43c-.18.12-.27.24-.27.35s.57 1.39 1.7 3.78a37.37 37.37 0 011.7 3.77zM78.4 14q0-2.57-1.48-3.44A8.5 8.5 0 0073 9.91q-2.3 0-2.34.37-.1.77-.1 4.1v2.71a.61.61 0 00.18.06l.84.07q1.35.07 2.91.07 3.91 0 3.91-3.29zm9.73 12.68c0 .2-.14.3-.41.3h-3.14c-.24 0-.36-.11-.36-.33q0-1.62.15-4.88t.15-4.89q0-1.58-.15-4.74t-.15-4.74c0-.24.11-.36.33-.36h3.2q.37 0 .37.28 0 1.59-.11 4.77t-.11 4.77q0 1.63.12 4.9t.11 4.92zm16.37-2.78a12.81 12.81 0 01-.21 2.83.47.47 0 01-.5.41q-1.05 0-3.15-.12t-3.15-.12h-6a.31.31 0 01-.35-.35q0-1.55.11-4.67t.11-4.69q0-1.65-.15-4.94t-.15-4.94c0-.21.12-.31.36-.31h3.16c.23 0 .34.09.34.27q0 1.51-.11 4.53t-.11 4.55v4.48q0 3.15.25 3.15 5.24 0 7.91-.26l.65-.1a3.63 3.63 0 01.66-.09c.23.1.33.19.33.37zm19.22 2.91c0 .11-.11.17-.34.17h-3.2q-.4 0-1-2.15t-1.26-2.18h-7.65q-.51 0-1.09 2.19c-.38 1.43-.68 2.15-.89 2.15h-3.2q-.28 0-.28-.2a2.43 2.43 0 01.2-.64l3.48-9.52q.44-1.15 2.67-6.63.4-.91 1.08-2.74c.11-.36.24-.54.37-.54a6.42 6.42 0 01.79.07 6.53 6.53 0 00.79.07 5.61 5.61 0 00.77-.08 5.88 5.88 0 01.76-.08c.09 0 .2.18.35.53q.34.8 3.37 8.56 4.28 10.92 4.28 11.02zM117.1 19a23.74 23.74 0 00-1.28-3.69q-1.23-3.18-1.75-4.18-2.94 7.5-2.94 7.86c0 .32.36.51 1.08.57h2.85q2.04-.02 2.04-.56zm23.9-4.85q0 .6-2.78 5.85l-3.52 6.56c-.14.28-.3.41-.47.41h-2.85c-.13 0-.27-.14-.4-.41l-3.38-6.36q-2.86-5.38-2.85-5.88 0-1.12.08-3.37t.08-3.37c0-.35.11-.53.34-.53h3.14c.22 0 .33.09.33.27q0 1.15-.15 3.47t-.15 3.48q0 1 4.4 8.61 1.17-2 2.53-4.56 2-3.72 2-4.37 0-1.11-.07-3.31t-.07-3.29q0-.28.31-.28h3.11a.31.31 0 01.35.27 2.4 2.4 0 000 .54v3.15c0 1.4.02 2.42.02 3.12zM162.09 17a10.57 10.57 0 01-2.7 7.26 9.33 9.33 0 01-14 0 10.55 10.55 0 01-2.7-7.27 10.54 10.54 0 012.73-7.26 9.24 9.24 0 0113.93 0 10.53 10.53 0 012.74 7.27zm-3.42 0a7.29 7.29 0 00-1.73-4.84 5.69 5.69 0 00-4.56-2.19 5.6 5.6 0 00-4.52 2.22 7.42 7.42 0 00-1.7 4.86 7.4 7.4 0 001.7 4.84 5.59 5.59 0 004.52 2.22 5.67 5.67 0 004.62-2.26 7.42 7.42 0 001.67-4.85zm21.48 9.31c0 .45-.14.67-.41.67h-3.27q-.41 0-2.15-3a41 41 0 01-1.95-3.69c-.32-.73-.51-1.14-.55-1.22a1.32 1.32 0 00-1-.75h-1c-1.19 0-1.79.15-1.79.44q0 1.31.09 3.91t.09 3.89c0 .31-.12.47-.35.47h-3.14c-.24 0-.35-.11-.35-.33q0-1.56.15-4.69t.15-4.69q0-1.65-.15-5t-.15-4.95c0-.21.12-.31.35-.31h3.11c.22 0 .33.09.33.26q0 1.21-.08 3.64t-.08 3.65a2 2 0 00.07.7c.08.17.27.26.58.26a6.44 6.44 0 004-1 8.5 8.5 0 002.07-3.34l1.42-3.81a.59.59 0 01.44-.33 10.83 10.83 0 011.61-.09q1.56 0 1.56.44a17.5 17.5 0 01-.65 2.3 16.67 16.67 0 01-2 4.2 13.93 13.93 0 01-2.1 2.49.8.8 0 00-.34.54 15.53 15.53 0 001.15 2.54 28.68 28.68 0 001.8 3.17q.89 1.1 2.5 3.37a.56.56 0 01.04.26zM-.5.28h43.89v33.44H-.5z"/><path d="M20.19 8.21q0 1.52-.11 4.57T20 17.37V26q0 .43-.33.43h-2.48q-.24 0-.57-.43Q13.81 22.14 8 14.54l-1-1.29q-.1-.13-.13.54 0 2 .07 6.09T7 26q0 .43-.26.43H3.97c-.22 0-.33-.09-.33-.26q0-1.45.14-4.37t.14-4.38q0-1.59-.12-5.74 0-1.08-.13-3.24v-.2q0-.2.32-.21Q4.8 8 5.29 8c.12 0 .36 0 .7-.11a4 4 0 01.69-.08q.12 0 .41.38 3 4.16 9.27 12.38.28.34.51.59a20.62 20.62 0 00.13-2.54q0-1.71-.12-5.14t-.13-5.12q0-.44.26-.43h2.94q.24-.01.24.28zm19.08 18.04q0 .16-.32.16h-2.96q-.37 0-.94-2t-1.17-2h-7.1q-.47 0-1 2t-.82 2H22c-.18 0-.26-.06-.26-.18a2.27 2.27 0 01.18-.59l3.23-8.82q.41-1.07 2.48-6.15.37-.84 1-2.54c.11-.33.22-.5.34-.5a6 6 0 01.74.07 6 6 0 00.74.07 5.31 5.31 0 00.72-.07 5.36 5.36 0 01.71-.07q.12 0 .33.49.32.74 3.12 7.94 3.94 10.09 3.94 10.19zM33.13 19a22.08 22.08 0 00-1.19-3.42q-1.15-3-1.62-3.87-2.73 7-2.73 7.28t1 .53h2.65q1.89-.02 1.89-.52z" fill="#fff"/></g></svg>