<svg id="Layer_1" data-name="Layer 1" xmlns="http://www.w3.org/2000/svg" viewBox="0 0 100 100"><defs><style>.cls-1{fill:#4d4d4d;}</style></defs><title>01</title><path class="cls-1" d="M71.62,14.88C66.48,5.07,55.16-1.21,44,1.67,34.85,3.55,26.69,11,25.41,20.56A24.54,24.54,0,0,0,37.58,44.83,26.11,26.11,0,0,0,46,47.71a88.5,88.5,0,0,0,.92,9.43c-2.64,2.19-2.53,7.24-2.8,10.31-.6,6.74,0,13.53.18,20.28.15,3.09-.1,7.91,2.77,10,2.21,1.6,8,1.79,10.28.35,3.3-2,3.55-7.18,3.52-10.56a206.11,206.11,0,0,0-1.07-20.81c-.39-3.47-.28-8-3.6-10-.29-3-.14-6.08-.37-9.11A26.28,26.28,0,0,0,66.9,42.73C76,35.77,76.73,24.61,71.62,14.88ZM57.25,68.38c.54,6.78,1.27,14,.9,20.83-.14,2.62-.27,4.71-2.57,6.09a6.79,6.79,0,0,1-5.25.61l-.18-.06c.27-.13.54-.27.82-.37a1,1,0,0,0,.71-1.24,1,1,0,0,0-1.24-.71,20,20,0,0,0-2.22,1,4.4,4.4,0,0,1-.63-1.18q1.94-1.53,4-2.87c1.09-.7.08-2.45-1-1.75s-2.32,1.58-3.43,2.42c0-.48-.07-1-.08-1.45l4.08-2.81c1.06-.73.05-2.49-1-1.75L47,87.33q0-.72,0-1.44a31.64,31.64,0,0,1,4-3.22c1.07-.73.06-2.48-1-1.75a35.24,35.24,0,0,0-3,2.32l-.09-2.34a38.4,38.4,0,0,1,4-2.72,1,1,0,0,0-1-1.75c-1.07.63-2.1,1.32-3.1,2q0-.65,0-1.31l3.89-2.67c1.07-.73.06-2.48-1-1.75l-2.92,2c0-.43,0-.87,0-1.3a1,1,0,0,0,.26-.2,23.78,23.78,0,0,1,4.43-3.73c1.09-.71.08-2.46-1-1.75a26.27,26.27,0,0,0-3.61,2.82c0-.54.05-1.07.08-1.61a24,24,0,0,1,4.82-3.08c1.17-.57.15-2.31-1-1.75a25.23,25.23,0,0,0-3.61,2.15c0-.5.08-1,.14-1.54a25.16,25.16,0,0,1,3.81-2.21c1.18-.55.15-2.29-1-1.75A25.24,25.24,0,0,0,47.56,62a4.58,4.58,0,0,1,4-3.6C56.87,57.76,57,64.77,57.25,68.38ZM53.41,55.78a10.58,10.58,0,0,0-4,.18c-.42-2.61-.57-5.28-.73-7.93A28.32,28.32,0,0,0,53.15,48C53.32,50.56,53.24,53.18,53.41,55.78Zm-.84-10.45c-11.14.87-21.77-5.94-24.17-17.14S33.62,6.55,44.75,4.27C56.43,1.25,67.32,9.43,71,20.16,75.51,33.33,65.67,44.31,52.57,45.33Z"/><path class="cls-1" d="M48.88,5.93C38.83,6.61,28.59,15.8,30.25,26.5c1.59,10.23,12.27,16.75,22.08,16.56,10.89-.22,18.16-7.6,16.64-18.72C67.59,14.29,59.26,5.63,48.88,5.93Zm16.06,29.6c-2.83,4-7.93,5.4-12.62,5.5-8.37.17-17.65-5-19.82-13.5C30,17.65,39.52,8.59,48.88,8,57.34,7.71,64.21,14,66.43,22,67.61,26.28,67.59,31.76,64.95,35.54Z"/><path class="cls-1" d="M41.59,12.71a14.8,14.8,0,0,0-7.93,12c0,1.49.23,3.77,2,4.2A2.57,2.57,0,0,0,38.55,27c.37-1.13.24-2.37.57-3.52a11.39,11.39,0,0,1,2.52-4.29c1.32-1.49,3.55-2.29,4.7-3.81a2.49,2.49,0,0,0-.12-3.14C45,11.06,42.83,12.08,41.59,12.71Zm.68,3.11a16.2,16.2,0,0,0-4,4.64A12,12,0,0,0,37,23.73a10.38,10.38,0,0,1-.17,1.1c-.33,1-1.13,2.64-1.11-.11a12.64,12.64,0,0,1,4.81-8.9c.45-.36,3.93-2.65,3.84-1.44A15,15,0,0,1,42.27,15.81Z"/><path class="cls-1" d="M49.67,10.09l0,0-.2.08a2.93,2.93,0,0,0-.86,4.46,2.84,2.84,0,0,0,4.52-.36A3,3,0,0,0,53,11.16,2.64,2.64,0,0,0,49.67,10.09Zm1.56,3.28a.79.79,0,0,1-.83.19.88.88,0,0,1,0-1.59c.36-.12.63-.14.84.12a1.43,1.43,0,0,1,.25.95.24.24,0,0,1,0,.06A1.41,1.41,0,0,1,51.22,13.37Zm.26-.37Z"/></svg>