<svg id="Layer_1" data-name="Layer 1" xmlns="http://www.w3.org/2000/svg" viewBox="0 0 100 100"><defs><style>.cls-1{fill:#4d4d4d;}</style></defs><title>02</title><path class="cls-1" d="M48.67,32.28c-9.12.79-16.48,8.24-16,17.63a18,18,0,0,0,18,17C74.23,67.12,71.74,29.5,48.67,32.28Zm2,31.71A15.1,15.1,0,0,1,35.54,49.91,14.18,14.18,0,0,1,48.67,35.16C68,32.84,70.55,63.94,50.65,64Z"/><path class="cls-1" d="M99.83,50.43c-.08-2.44.78-7.33-1.4-9.17s-7.06-1.35-10.18-1.4A75.27,75.27,0,0,0,86,32.54c-.38-.92-1.94-2.78-1.65-3.65.42-1.29,4.64-3.21,5.58-4.57a4.13,4.13,0,0,0,.86-3.55c-.59-2.31-3.4-4.08-5-5.57S82.12,10.88,80,10c-3.4-1.37-6.75,3.29-9,5.87-2.74-1.6-5.5-2.47-8.36-3.81-2-1-2.42-1-2.85-3.06-.35-1.67.28-3.57-.13-5.33C58.49-1.4,53.15.15,49.12.47s-8.76-.44-9,4.71c-.07,1.64.78,3.79.2,5.37-.5,1.36-.87,1-2.72,1.68a41.11,41.11,0,0,0-8,3.9c-2-2.44-4.27-5.8-7.63-5.64-3.57.17-7,4.73-9.23,7-4.62,4.74.21,8,3.72,11.6a33,33,0,0,0-5.27,11.12c-3.16-.6-7.59-1.05-9.8,1.14S.15,49.55.37,52.34c.19,2.44.09,5.59,2.43,6.92s6.13.69,8.92.3A49.59,49.59,0,0,0,14.23,67c.25.56,1.35,2.12,1.28,2.64,0,.15-.66.62-.9,1-1.34,2.35-6.08,4.5-4.91,8C10.78,81.9,17.55,87.73,20.8,89c3.61,1.39,6.63-2.45,9.06-5a25.13,25.13,0,0,0,11.21,4.55c-.17,3.19-1.4,7.63.56,9.93,1.47,1.72,4.95,1.34,6.84,1.39,2.53.06,5.79.43,8.2-.53a4.37,4.37,0,0,0,3-3.51c.39-1.88-1.29-5.28-.45-6.79.7-1.27,4.93-2,6.48-2.84,2.57-1.37,4.72-3.9,7.41-1.48s4.12,6.95,8.2,4.48a27.27,27.27,0,0,0,8.1-8.27c2-3.33.55-4.62-2.07-7s-3.67-2.25-2.09-5.83a84.64,84.64,0,0,0,3.15-9c3.07.16,7.59.89,10-.63S99.91,52.78,99.83,50.43Zm-4.68,5.71c-2.1.66-5.6,0-7.79.06a1.33,1.33,0,0,0-1.07.49,1.48,1.48,0,0,0-.32.56c-1.28,4.07-3.14,7.83-4.58,11.76a3.62,3.62,0,0,0,.7,4.14c1.25,1.61,4.29,2.67,5,4.53S84,83,82.78,84.26c-.65.64-1.78,2-2.68,2.27-1.76.47-2.39-.78-3.64-2.24s-2.57-3.81-4.73-4.07c-1.51-.19-3.16,1-4.42,1.71-3.26,1.81-6.08,3.27-9.81,3.9a1.39,1.39,0,0,0-1,1c-.25,1.85.17,3.55.18,5.39,0,4.9-4.26,4.86-8.19,4.76-3.5-.09-4.82-.08-4.69-3.74a54.66,54.66,0,0,0,.17-6,1.49,1.49,0,0,0-1.44-1.44,21.93,21.93,0,0,1-11.78-4.75,1.55,1.55,0,0,0-.57-.29,1.38,1.38,0,0,0-1.47.29c-1.27,1.15-3.63,4.33-5.24,4.8-2.8.82-5.34-2.45-7.13-4.15-1.43-1.36-4-3-3.26-5.25.51-1.55,2.82-3.06,4-4.17s1.74-1.57,1.34-3.29c-.45-1.93-1.83-3.81-2.52-5.7a52.68,52.68,0,0,1-1.68-5.77,1.45,1.45,0,0,0-1.39-1.06c-1.51.18-3,.34-4.55.39-2.74.09-4.2.41-4.77-2.64a24.91,24.91,0,0,1-.38-7.16c.16-1.25.26-3.31,1.5-4.09,1.4-.89,5.85,0,7.25.3a1.46,1.46,0,0,0,1.77-1,31.55,31.55,0,0,1,5.92-12.58A1.45,1.45,0,0,0,19.32,28c-2.08-2.38-6.83-5.05-4.56-8.42a18.84,18.84,0,0,1,4.86-4.62c4.28-2,6,1,8.34,3.75a1.27,1.27,0,0,0,2,.63,46.32,46.32,0,0,1,10-4.77,6.45,6.45,0,0,0,2.42-1.2c.82-.91.89-2.42.95-3.58s-.53-2.65-.25-3.82c.57-2.41,3-2.34,5.16-2.51,1.36-.11,3-.26,4.39-.35a5.72,5.72,0,0,1,3.6.65c1.24.7.67,2,.8,3.67s-.67,3.5.31,5.15c.73,1.22,1.67,1.47,3,1.92a45.73,45.73,0,0,1,10,4.4,1.52,1.52,0,0,0,.35.16,1.32,1.32,0,0,0,1.6-.26c1.54-1.53,3.32-4.23,5.23-5.19,2.37-1.19,3.69,1.28,5.57,3.05s5.51,3.89,3.6,6.89c-.94,1.48-3.19,2-4.39,3.34s-1.23,2-.68,3.56,1.55,2.82,2.08,4.38c.77,2.25,1.33,4.59,2.07,6.86a1.5,1.5,0,0,0,1.39,1.06c2.24.17,5,0,7.16.55,3.43,1,2.52,4.19,2.62,7.17C97,52.87,97.74,55.33,95.15,56.15Z"/><path class="cls-1" d="M43.37,25.1a16.68,16.68,0,0,1,5.35-.82,1.44,1.44,0,0,0,0-2.88,19.28,19.28,0,0,0-6.12.93C40.85,22.88,41.6,25.67,43.37,25.1Z"/><path class="cls-1" d="M59.43,25.93A10.1,10.1,0,0,1,63.51,28c1.4,1.21,3.45-.83,2-2a13.34,13.34,0,0,0-5.36-2.85A1.44,1.44,0,0,0,59.43,25.93Z"/><path class="cls-1" d="M76.49,39.2a18.09,18.09,0,0,0-2.66-5,1.49,1.49,0,0,0-2-.52,1.45,1.45,0,0,0-.52,2A15.73,15.73,0,0,1,73.71,40C74.33,41.7,77.12,41,76.49,39.2Z"/><path class="cls-1" d="M75.37,51a32.56,32.56,0,0,1-.86,5c-.45,1.8,2.33,2.57,2.78.77a37.55,37.55,0,0,0,1-5.77C78.42,49.19,75.53,49.2,75.37,51Z"/><path class="cls-1" d="M71.48,65.1a1.45,1.45,0,0,0-2,.52A7.27,7.27,0,0,1,66.39,69c-1.62.9-.17,3.4,1.46,2.49A9.84,9.84,0,0,0,72,67.07,1.48,1.48,0,0,0,71.48,65.1Z"/><path class="cls-1" d="M56.5,74c-1.65.3-3.3.52-5,.67-1.84.16-1.85,3,0,2.88s3.84-.42,5.74-.77S58.32,73.67,56.5,74Z"/><path class="cls-1" d="M41,73a14.18,14.18,0,0,1-4.68-2.3,1.45,1.45,0,0,0-2,.52,1.47,1.47,0,0,0,.52,2,16.42,16.42,0,0,0,5.37,2.59A1.44,1.44,0,0,0,41,73Z"/><path class="cls-1" d="M26.47,58.7a1.44,1.44,0,0,0-2.78.77A15.56,15.56,0,0,0,26.57,65a1.45,1.45,0,0,0,2,0,1.48,1.48,0,0,0,0-2A12,12,0,0,1,26.47,58.7Z"/><path class="cls-1" d="M25.16,48.17a29.57,29.57,0,0,1,.39-5.24c.31-1.82-2.47-2.6-2.78-.77a33.9,33.9,0,0,0-.49,6A1.44,1.44,0,0,0,25.16,48.17Z"/><path class="cls-1" d="M32.65,27.75a17.9,17.9,0,0,0-4.59,4,1.49,1.49,0,0,0,0,2,1.45,1.45,0,0,0,2,0,15.63,15.63,0,0,1,4-3.56C35.69,29.27,34.24,26.77,32.65,27.75Z"/></svg>