<svg id="Layer_1" data-name="Layer 1" xmlns="http://www.w3.org/2000/svg" viewBox="0 0 100 100"><defs><style>.cls-1{fill:#4d4d4d;}</style></defs><title>03</title><path class="cls-1" d="M81.86,29.92a18,18,0,0,0-5.55.56c-1.89-4.62-4-9.16-6.18-13.58-1.41-2.79-3.06-7.21-5.78-9.05-3.77-2.55-8,1.67-10.38,4.26-10.07,11-19.25,22.67-32.73,29.81a1.54,1.54,0,0,0-.32.23c-3.8,1.16-7.59,2.36-11.36,3.61-2.43.81-5.74,1.35-7.74,3.13C-1.64,51.95.66,58.62,2,62.11c1.28,3.3,4.26,9.94,8.1,11.07A6.94,6.94,0,0,0,13.66,73c2.28,4.73,4.36,9.6,7,14.15C22.34,90.1,24.06,94,28,92.69c4.13-1.37,9.33-5.58,8.08-10.46-.64-2.46-2.89-4.3-4.29-6.3a46.11,46.11,0,0,1-3.9-7l1.84-.58a77.34,77.34,0,0,1,23.39-1.41c7,.77,13.83,2.62,20.71,4.08,3.39.72,9.84,3.39,12.17-.71s-.76-12-1.84-16.18c-.73-2.83-1.55-5.64-2.43-8.45,1.9-1.28,4.25-2.48,5.18-4.62s0-4.74-.95-6.82C85.16,32.4,84,30.2,81.86,29.92Zm-74,37a27.69,27.69,0,0,1-4.5-10.6C2.65,52.19,5,50.39,8.5,49.19c4.28-1.44,8.59-2.81,12.91-4.13q3.27,10.37,6.94,20.6C24.52,66.9,20.66,68,16.75,69,13.12,70,10.37,70.35,7.9,66.91Zm23,11.5c.39.51,1,1.18,1.33,1.68,1.91,3,2,4.84-.57,7.63a10.69,10.69,0,0,1-2.86,2,5.34,5.34,0,0,1-2.06.65,12.23,12.23,0,0,0,1-2.21c.46-1.34-1.66-1.92-2.12-.58a9.34,9.34,0,0,1-.87,1.83l-.29-.27c-.2-.21-.4-.44-.59-.68a1.21,1.21,0,0,0,.06-.14A11.09,11.09,0,0,1,24.65,87a13.84,13.84,0,0,0,.7-1.68c.46-1.34-1.66-1.92-2.12-.58a12.07,12.07,0,0,1-.75,1.62c-.29-.51-.56-1-.83-1.58v0l1.51-3.31a1.13,1.13,0,0,0-.39-1.5,1.11,1.11,0,0,0-1.5.39l-.85,1.85c-.2-.43-.4-.85-.59-1.24l-.3-.62a1.14,1.14,0,0,0,.23-.27l1.47-2.53a1.1,1.1,0,0,0-1.9-1.11L18.43,78c-.28-.58-.56-1.16-.84-1.75a1.59,1.59,0,0,0,.23-.23q.66-.87,1.27-1.76a1.1,1.1,0,0,0-1.9-1.11c-.21.3-.43.6-.64.89l-.76-1.61c.62-.2,1.22-.39,1.75-.53,2.78-.71,5.53-1.49,8.27-2.33A47.72,47.72,0,0,0,30.93,78.41ZM71.58,67.47c-6.32-1.4-12.63-3-19.09-3.59a78.49,78.49,0,0,0-22,1.31Q26.75,54.69,23.4,44.06c12.12-6.62,21.54-17,30.43-27.32a40.79,40.79,0,0,1,4.48-5C63.55,19.55,67,29.33,70.4,38a165.46,165.46,0,0,1,9.1,31.33C76.81,69.13,73.47,67.89,71.58,67.47Zm12.17-.91a2.62,2.62,0,0,1-2,2.61,165.19,165.19,0,0,0-9.46-32.46c-3.48-8.68-6.84-18.36-12.1-26.2a3.07,3.07,0,0,1,2.87,0c1.25.71,2.31,3.55,3,4.75A156.21,156.21,0,0,1,73.94,32.6a189.48,189.48,0,0,1,7.22,21.52C82.13,57.81,84,62.72,83.74,66.56Zm.68-25.69a11.12,11.12,0,0,1-3.37,2.6Q79.27,38,77.13,32.58c.87-.15,1.75-.29,2.63-.38,2.15-.23,3,.39,4,2.37S85.81,38.89,84.42,40.87Z"/><path class="cls-1" d="M82.45,23.33c0-2.09,0-4.18,0-6.27a1.1,1.1,0,0,0-2.2,0c0,2.09,0,4.18,0,6.27A1.1,1.1,0,0,0,82.45,23.33Z"/><path class="cls-1" d="M91.4,27.57l3.44-3.77c1-1-.6-2.6-1.56-1.56L89.85,26C88.89,27.05,90.45,28.61,91.4,27.57Z"/><path class="cls-1" d="M98.94,34.77c-1.63-.1-3.27-.09-4.9-.14-1.42,0-1.41,2.16,0,2.2,1.63.05,3.27,0,4.9.14C100.36,37.06,100.35,34.86,98.94,34.77Z"/><path class="cls-1" d="M90.66,44.78c-1.15-.83-2.25,1.08-1.11,1.9a45.45,45.45,0,0,1,4,3.31c1,1,2.6-.6,1.56-1.56A50.36,50.36,0,0,0,90.66,44.78Z"/><path class="cls-1" d="M11.89,55.15c1.31-.51.74-2.64-.58-2.12L6.88,54.75c-1.31.51-.74,2.64.58,2.12Z"/><path class="cls-1" d="M12.49,56.63a32.15,32.15,0,0,1-4.68,1.79,1.1,1.1,0,0,0,.58,2.12,35.87,35.87,0,0,0,5.2-2C14.88,57.92,13.77,56,12.49,56.63Z"/></svg>