<svg id="Layer_1" data-name="Layer 1" xmlns="http://www.w3.org/2000/svg" viewBox="0 0 100 100"><defs><style>.cls-1{fill:#4d4d4d;}</style></defs><title>04</title><path class="cls-1" d="M99,75.54c-1.61-2.21-4.07-3.82-6.23-5.45-3-2.28-5.67-4.95-8.54-7.39C88,60.11,87,52.41,87,48.52c-.1-8.27-.41-16.57-.61-24.84-.06-2.38,0-5.12-2.21-6.7-2.39-1.73-7.35-1-10.23-1.26-8-.64-16.23.32-24.32,0l-27.3.16c-2.48,0-4.8-.25-6.43,1.91-2.08,2.75-1.6,6.86-1.47,10,.41,10.11-.61,20.24.08,30.39A5.44,5.44,0,0,0,17,62.81C13.2,65.48,9.31,68,5.7,70.91,3,73,0,75.07,0,78.75,0,82,1.51,83.64,4.62,84a126.1,126.1,0,0,0,18.87.28c14.33-.52,28.63-.08,43-.47,6.2-.17,12.4,0,18.6.05,3.79,0,10.65,1.37,13.55-1.78A5.07,5.07,0,0,0,99,75.54ZM17,50.4c-.14-4.3-.25-8.61-.12-12.92.12-4,.27-7.86.18-11.84-.06-2.55,0-5.92,3-6.91,1.64-.53,4.26,0,6,0l23.51-.13c5,.19,10.14.29,15.19,0,3.79-.21,17.28-1.52,18.67,3.07.5,1.63.09,3.94.09,5.65,0,3.79.09,7.58.26,11.37.13,3,.28,6,.33,9.07,0,1.89,0,3.78,0,5.67-.07,2.71.36,4.94-2.07,6.39-2.73,1.63-7.64.71-10.81.69-3.51,0-7-.12-10.53-.07-6.88.1-13.75.48-20.63.55-3.31,0-6.63-.09-9.94,0-3,.13-8.21,1.35-11-.19C16.08,59.18,17.14,53.26,17,50.4ZM95.4,80.84c-2.21,1-7.2.22-9.63.21-12.26-.07-24.6-.44-36.84-.28-12.8.17-25.58,1-38.4.67-2.48-.06-7.45.53-7.71-2.69-.17-2.06,1.92-3.35,3.32-4.57,4.26-3.7,9.14-6.64,13.69-10a1.51,1.51,0,0,0,.31-.31,33.47,33.47,0,0,0,6.94.11C36,63.57,45,63.71,53.9,63.42c4.43-.14,8.86-.24,13.3-.17s9.31.63,13.76.35l.07.07c4.57,3.68,9.29,7.58,13.65,11.5C96.36,76.68,99.2,79.06,95.4,80.84Z"/><path class="cls-1" d="M23,57.33c9.18-.16,18.42-.14,27.59-.53s18.76-.86,28-.3a1.07,1.07,0,0,0,1.06-1.06c-.25-10.45-.31-20.88-.72-31.35A1.08,1.08,0,0,0,77.82,23c-18.45.22-36.9-.22-55.35,0a1,1,0,0,0-.6.21.92.92,0,0,0-.46.85l.49,32.2A1.07,1.07,0,0,0,23,57.33ZM76.8,25.16c.36,9.74.44,19.45.67,29.17-8.89-.46-18,0-26.91.35s-17.71.38-26.55.52l-.46-30.08C41.3,25,59.05,25.36,76.8,25.16Z"/><path class="cls-1" d="M60.16,71.29a1.11,1.11,0,0,0-1-.78c-5.82-.4-11.6.15-17.43.18a1.1,1.1,0,0,0-1,.78A28.84,28.84,0,0,0,39,77a1.07,1.07,0,0,0,.05.62,1,1,0,0,0,1,.72c7,0,14.41.53,21.31-.55a1.06,1.06,0,0,0,.74-1.3C61.41,74.77,60.83,73,60.16,71.29Zm-18.8,5a21,21,0,0,0,.7-2.6l.35-.86h.09c2.77-.2,5.56-.21,8.34-.28a47.69,47.69,0,0,1,7.52.06h0l.38,1a12.79,12.79,0,0,0,.78,2.37C53.63,76.69,47.34,76.32,41.36,76.26Z"/><path class="cls-1" d="M49.68,21.82a1.06,1.06,0,0,0,0-2.12A1.06,1.06,0,0,0,49.68,21.82Z"/><path class="cls-1" d="M25.25,28.77q1.21,1.91,2.57,3.7a1.09,1.09,0,0,0,1.45.38,1.06,1.06,0,0,0,.38-1.45q-1.36-1.8-2.57-3.7C26.35,26.56,24.51,27.62,25.25,28.77Z"/><path class="cls-1" d="M32,32.24c.94,1,2.43-.51,1.5-1.5L30.2,27.24c-.94-1-2.43.51-1.5,1.5Z"/></svg>