<svg id="Layer_1" data-name="Layer 1" xmlns="http://www.w3.org/2000/svg" viewBox="0 0 100 100"><defs><style>.cls-1{fill:#4d4d4d;}</style></defs><title>05</title><path class="cls-1" d="M99.48,69a1.53,1.53,0,0,0-.24-.32,50.58,50.58,0,0,0-8-6.77,1.45,1.45,0,0,0-1.46,0,10.66,10.66,0,0,0-.94.57c-1.21-1.24-2.4-2.79-4.21-2.37a3.91,3.91,0,0,0-1.27.61c-2.78-4-3.94-8.26-5.4-12.87a28.77,28.77,0,0,0-6.77-11C69,34.59,66,30.65,62.6,30.19a5.61,5.61,0,0,0-5.48,2.7c-3.33-2.05-7.49-1.08-9,2.47a6.31,6.31,0,0,0-8,2.61c-5.94-5.78-11-12.87-17.63-17.76-4.7-3.45-12-.32-9.13,6,2,4.25,6.42,7.43,9.63,10.71,2.27,2.31,4.55,4.58,6.74,7,1.71,1.86,3.48,3.67,5.26,5.46C32.11,57.25,35,64.94,43,68.4c4.08,1.77,8.4,2.41,12.74,3.19,4,.72,7,3.32,9.78,6.11A3.66,3.66,0,0,0,65,78.78c-.5,1.86,1.45,3.64,2.81,5l-.43.5a1.48,1.48,0,0,0,0,2c2.71,2.76,5.26,5.66,8,8.43a1.49,1.49,0,0,0,1.75.23c2.89-1.36,5.23-4.37,7.38-6.64,2.65-2.8,5.25-5.53,8-8.19C94.6,78.13,102,72.8,99.48,69Zm-32,6.54c-3.91-3.77-7.49-6.17-13-7.11-9.3-1.57-20.69-5.81-17.35-16.93l4.76,4.7a1.44,1.44,0,0,0,2-2C37.7,48,31.65,41.64,25.46,35.38c-2.69-2.72-6.92-5.69-8.78-9-1.17-2.11-1.43-4.27,1.43-4.44,1.81-.11,2.33.38,3.62,1.49,1.09.94,2.05,2,3.07,3,5,5,9.53,10.35,14.76,15.08A1.46,1.46,0,0,0,42,40.84q1-4.3,6-2.29a1.46,1.46,0,0,0,2.46-1q1-4.58,6.24-1.32a1.45,1.45,0,0,0,2.41-.64c1.61-6.32,8.74,1.95,10.3,3.65a25.64,25.64,0,0,1,5.6,9c1.79,5.18,2.85,9.93,6.13,14.45l-.42.36c-2.11,1.69-4.11,3.5-6,5.39-1.73,1.69-3.39,3.45-5,5.22C69.08,74.16,68.28,74.85,67.48,75.59Zm.65,4.06c0-.61,1.37-1.68,2-2.37,2.14-2.33,4.29-4.65,6.55-6.86a85.56,85.56,0,0,1,7.57-6.59c1.42-1.1,1.31-.63,2.32.52-2.21,2.13-4.16,4.84-6.12,6.76-3.61,3.54-7.29,6.78-10.68,10.44A16.18,16.18,0,0,1,68.13,79.66Zm8.45,12.17c-2.09-2.18-4.13-4.42-6.22-6.61,4.74-5.46,10.27-10,15.22-15.25,1-1.09,2-2.21,3.06-3.26.6-.6,1.92-1.67,1.83-1.67,1.25.06,5.79,4.79,6.73,5.73C97.58,71.22,81.28,88.18,76.58,91.82Z"/><path class="cls-1" d="M74.89,82.79a1.2,1.2,0,0,0-.17.2,1.14,1.14,0,0,0-.13.22,3.18,3.18,0,0,0,.82,4.49,3.31,3.31,0,0,0,4.5-1.06A3.74,3.74,0,0,0,79.28,82C77.89,80.69,75.94,81.52,74.89,82.79ZM78,85.55a1.12,1.12,0,0,1-1.44.35c-.77-.44-.41-1.25,0-1.82s1.1-.84,1.48-.22A1.51,1.51,0,0,1,78,85.55Z"/><path class="cls-1" d="M32.23,23.2C33.55,11,17.37,7.84,10,14.82,1.73,22.61,5.37,39.34,18.45,38c1.37-.14,1.39-2.31,0-2.16C7.21,37,4.56,22.8,11.51,16.35c6.15-5.72,19.67-3.4,18.56,6.85C29.92,24.58,32.09,24.57,32.23,23.2Z"/><path class="cls-1" d="M22,39.84c-5.48,2.21-12.33.06-16.3-4.16C-.25,29.33,2,18.24,7.43,12.36A16.7,16.7,0,0,1,27.9,9.2c6.2,3.37,10.48,12.52,6.7,19a1.08,1.08,0,0,0,1.87,1.09c4.1-7,.51-16.44-5.84-20.92A19,19,0,0,0,6.81,9.9C.31,16.07-2.47,27.33,2.66,35.25c4,6.11,13.14,9.42,20,6.67C23.9,41.41,23.34,39.32,22,39.84Z"/><path class="cls-1" d="M89.66,69.35a1.08,1.08,0,0,0-1.87,1.09l1.79,3.06a1.08,1.08,0,0,0,1.87-1.09Z"/><path class="cls-1" d="M92.8,68.86a1.09,1.09,0,0,0-1.48-.39A1.11,1.11,0,0,0,90.93,70l1.34,3a1.09,1.09,0,0,0,1.48.39,1.11,1.11,0,0,0,.39-1.48Z"/></svg>