<svg id="Layer_1" data-name="Layer 1" xmlns="http://www.w3.org/2000/svg" viewBox="0 0 100 100"><defs><style>.cls-1{fill:#4d4d4d;}</style></defs><title>06</title><path class="cls-1" d="M96,9.16c-8.58-11.53-23.79-11.35-35-4.06A75.08,75.08,0,0,0,45.23,19.65c-4,4.71-8.71,10.24-10.83,16.1-.12.33-.23.67-.32,1A48.38,48.38,0,0,0,17.62,48.57C12.42,54.15,6.8,60.43,3.27,67.22-2,77.28,0,89.45,9.21,96.68c10.5,8.25,25.13-.61,33.58-7.66A90.66,90.66,0,0,0,58.71,71a61.52,61.52,0,0,0,5.5-9.15c12.35-2,21.07-11.49,27.61-21.61C97.74,31.11,103.5,19.18,96,9.16ZM51.91,33.5c1-1.58,2.12-3,2.95-4,5.06-6.48,10.6-14.15,19-16.38,5.9-1.56,11.61,1.82,11.15,8.28-.25,3.58-2.1,7-4.18,9.85-4,5.49-8.62,11.09-14.55,14.57C64.6,38.75,59.5,32.85,51.91,33.5ZM47.15,61.38c-2,2.74-4,5.08-4.79,6.09-3.84,5.11-7.77,11.08-13.6,14.11-3.06,1.59-9.2,3.32-11.75.17-3.51-4.34.4-11.26,3-14.89,4.56-6.41,10.06-11.42,16.17-16.24A26.48,26.48,0,0,0,47.15,61.38ZM27.46,95.68c-7.85,3-15.29,2.13-20.44-5C3.05,85.2,1.45,79,3.66,72.4c2.45-7.3,8.09-13.36,13-19.11S26.86,42.82,33.56,39.66c0,.18,0,.36,0,.53-.69.28-1.38.58-2,.91a1.22,1.22,0,0,0,1.23,2.11c.29-.15.6-.27.9-.4l0,.17c-.51.3-1,.61-1.52.92-1.32.84-.1,2.95,1.23,2.11l.78-.47.07.25-.91.66a1.25,1.25,0,0,0-.44,1.67,1.23,1.23,0,0,0,1.67.44L35,48.2l.08.21-.07,0C26.8,54.87,14.42,64.62,13.42,76c-.33,3.71.82,8.35,4.64,9.42s8.45.14,11.92-1.71c8.57-4.54,13.75-14.43,19.85-21.58,3.82-4.49,9.39-16.8-1.25-17.37,0-.07-.05-.14-.08-.21h.13a1.22,1.22,0,0,0,0-2.44h-.42c0-.07,0-.14,0-.21.55,0,1.09.07,1.63.14a1.23,1.23,0,0,0,1.22-1.22,1.25,1.25,0,0,0-1.22-1.22l-1.08-.11c.06-.17.12-.34.18-.51l1,.11A1.21,1.21,0,0,0,50,36.67l.23-.43c7.09-1.75,11.85,3.14,13.62,9.63s-.42,12.94-3.67,18.45C52.75,77,41.52,90.3,27.46,95.68ZM65.31,59.25l.14-.41a1.24,1.24,0,0,0,.58-.15l2-1c1.39-.73.16-2.84-1.23-2.11l-.46.24c.05-.23.09-.46.14-.69.78-.32,1.57-.65,2.34-1a1.23,1.23,0,0,0,.44-1.67A1.25,1.25,0,0,0,67.56,52l-.73.32c0-.2,0-.39,0-.59l1.46-.55a1.25,1.25,0,0,0,.85-1.5,1.23,1.23,0,0,0-1.5-.85l-.86.32c0-.27,0-.53-.08-.8C72,45.49,75.38,41.54,79.17,37c3-3.57,5.89-6.91,7.4-11.41,2.82-8.4-2.43-16.92-11.87-15.19-11.16,2-19.26,13.48-25.28,22.16-4.3,6.2-6.34,15.6,3.19,17.72a4.66,4.66,0,0,1,0,.49A4.4,4.4,0,0,0,51,50.52a1.25,1.25,0,0,0-1.22,1.22A1.23,1.23,0,0,0,51,53a2.81,2.81,0,0,1,1.09.17c-.08.21-.16.42-.25.63-.47-.12-.94-.23-1.4-.37a1.22,1.22,0,0,0-.65,2.35c.31.1.63.17,1,.25l-.41.72c-.5-.18-1-.35-1.5-.49a1.22,1.22,0,0,0-.65,2.35c.27.08.54.18.81.26l-.38.55a21.86,21.86,0,0,1-11.76-14c-1.71-6,.24-10.13,3.48-15.11C47.75,18.8,59.92,4.44,74.3,2.44c8.35-1.16,17.51,3,21.39,10.73,3.28,6.54.79,14.06-2.48,20C87.19,44.22,78.28,56.54,65.31,59.25Z"/><path class="cls-1" d="M69.82,4.6a43.66,43.66,0,0,0-11.37,6.86c-1.2,1,.53,2.74,1.72,1.72A41.73,41.73,0,0,1,71.05,6.7C72.49,6.09,71.25,4,69.82,4.6Z"/><path class="cls-1" d="M74.8,3.55A1.22,1.22,0,0,0,74.8,6,1.22,1.22,0,0,0,74.8,3.55Z"/><path class="cls-1" d="M28.14,91.16a21.61,21.61,0,0,1-12.63,2c-1.54-.22-2.2,2.13-.65,2.35a24.52,24.52,0,0,0,14.51-2.22C30.78,92.59,29.55,90.48,28.14,91.16Z"/><path class="cls-1" d="M32.72,88.92a1.22,1.22,0,0,0,0,2.44A1.22,1.22,0,0,0,32.72,88.92Z"/></svg>