<svg id="Layer_1" data-name="Layer 1" xmlns="http://www.w3.org/2000/svg" viewBox="0 0 100 100"><defs><style>.cls-1{fill:#4d4d4d;}</style></defs><title>08</title><path class="cls-1" d="M99.43,47.42c-.16-5.19-.06-10.37,0-15.56.07-3.31.08-6.59-.1-9.9-.14-2.64.33-6-.39-8.55s-2.69-2.68-5.06-2.8c-6.13-.29-12.33,0-18.47-.07-13.7-.06-27.41-.14-41.11-.16-7.22,0-14.4.17-21.6.65-2.59.17-6.93-.33-9,1.49-1.41,1.21-1.58,3.12-1.88,4.81A86.77,86.77,0,0,0,.92,28.86C.59,37.22.74,45.59.22,53.94-.2,60.7.07,67.45.27,74.21.37,78-.84,84.12,2.38,87s10.33,1.67,14.26,1.79c7.23.22,14.47.42,21.71.54,13.56.21,27.11-.28,40.66.25a79.3,79.3,0,0,0,16-.88c3-.52,4-2.34,4.3-5.23C100.57,71.54,99.8,59.34,99.43,47.42ZM8.91,14.3c1.28-.12,2.56-.15,3.85-.24,5.28-.35,10.54-.6,15.84-.64,11.36-.08,22.72,0,34.07.1l14.65.06c5.15,0,10.74-.62,15.84.05,2.39.31,2.5.51,2.93,2.95a57.67,57.67,0,0,1,.35,7.16c0,.33,0,.67,0,1q-46.13-1.67-92.29-.3c.12-1.74.27-3.47.48-5.2C5,16,5.64,14.61,8.91,14.3ZM96.72,69.88c-.13,4.15,0,8.36-.36,12.5-.24,3-1.48,2.87-4.24,3.32a62.07,62.07,0,0,1-8.62.89c-10.63.24-21.37-.25-32-.23-12.59,0-25.18-.34-37.76-.72-3.94-.12-10,.42-10.29-4.66-.14-2.86-.09-5.74-.18-8.61-.19-6.15-.37-12.29,0-18.44.56-9,.27-18.16.77-27.22q46.24-1.38,92.48.3c0,4.28-.16,8.57-.19,12.85C96.26,49.9,97,59.85,96.72,69.88Z"/><path class="cls-1" d="M11.57,22.61c1.86-.22,3.8-1.29,3.48-3.45a3.63,3.63,0,0,0-3.57-3.3c-1.89,0-3.27,1.82-3.56,3.54C7.55,21.54,9.62,22.84,11.57,22.61Zm-1.35-3.07c.15-.56.59-1.41,1.26-1.4a1.2,1.2,0,0,1,1.2.87c.3.94-.24,1.15-1.09,1.31a1.77,1.77,0,0,1-1.12-.1C10.08,20,10.1,20,10.22,19.53Z"/><path class="cls-1" d="M21.11,22.5a3.56,3.56,0,0,0,3.83-3.38,3.25,3.25,0,0,0-3.41-3.6,3.67,3.67,0,0,0-3.91,3.17A3.72,3.72,0,0,0,21.11,22.5Zm-1.22-3.79c.16-.69,1-1,1.64-.92s1.26.4,1.15,1.16a1.3,1.3,0,0,1-1.55,1.27C20.45,20.1,19.72,19.48,19.89,18.71Z"/><path class="cls-1" d="M31.36,22.33a3.74,3.74,0,0,0,3.49-3.62,3.7,3.7,0,0,0-3.71-3.51A4,4,0,0,0,27.44,19C27.3,21.17,29.36,22.46,31.36,22.33Zm-.22-4.85A1.29,1.29,0,0,1,31.39,20c-.65.12-1.64-.15-1.69-.88A1.68,1.68,0,0,1,31.14,17.48Z"/><path class="cls-1" d="M37.35,37c-3.16-2.57-7.59-.4-10.4,1.56-5.31,3.68-9.66,8.3-14.67,12.33-7.62,6.67,1.6,13.94,6.89,17.89,3.58,2.68,7.87,6.36,12.24,7.65,2.89.86,7.35-.27,7.55-3.9s-5.34-7.18-7.75-9.3a53.89,53.89,0,0,0-4.63-3.64c-.7-.49-1.43-1-2.14-1.43-1.56-1.05-2.17-.83-1.22-2.34C25.61,52,44.62,42.9,37.35,37ZM20.73,58.35c1.68,2.1,5.37,3.59,7.49,5.33C29.89,65,31.42,66.53,33,68c.62.6,2.53,1.82,2.79,2.69C37,75,33.61,74.66,31.51,74l.6-.44A1.17,1.17,0,0,0,32.51,72,1.15,1.15,0,0,0,31,71.56l-1.34,1a1.45,1.45,0,0,0-.38.43c-.48-.24-.95-.5-1.42-.77.17-.12.33-.24.51-.35a1.14,1.14,0,0,0-1.15-2,10,10,0,0,0-1.39,1q-.85-.58-1.67-1.18l.95-.5c1.29-.69.15-2.65-1.15-2l-1.81,1-1.08-.83c.18-.12.37-.25.57-.36a1.14,1.14,0,0,0-1.15-2,9.37,9.37,0,0,0-1.29.89c-.52-.39-1.08-.81-1.66-1.27a4.77,4.77,0,0,1,.94-.6,1.15,1.15,0,0,0,.41-1.56,1.16,1.16,0,0,0-1.56-.41,6.28,6.28,0,0,0-1.57,1.09c-.42-.37-.83-.76-1.22-1.16l1.09-.72c1.22-.8.08-2.78-1.15-2L13,60.33A7.8,7.8,0,0,1,11.87,58h1.08a1.14,1.14,0,0,0,0-2.28h-1.2a5.14,5.14,0,0,1,1-2.11,9.39,9.39,0,0,0,1.35,1.25,1.15,1.15,0,0,0,1.56-.41,1.16,1.16,0,0,0-.41-1.56c.18.13-.18-.17-.22-.2l-.42-.42-.24-.25,1.14-1a13.74,13.74,0,0,1,1.24,1.35,1.14,1.14,0,0,0,1.61,0,1.17,1.17,0,0,0,0-1.61,13.75,13.75,0,0,0-1.14-1.25l1.62-1.47c.43.39.87.76,1.28,1.17a1.14,1.14,0,0,0,1.61-1.61c-.38-.38-.79-.73-1.19-1.09q.93-.83,1.89-1.63c.41.47.84.91,1.26,1.38,1,1.09,2.58-.52,1.61-1.61-.36-.4-.78-.75-1.11-1.16.29-.22.57-.44.86-.65s.83-.62,1.23-.94l.63.86a1.17,1.17,0,0,0,1.56.41,1.15,1.15,0,0,0,.41-1.56l-.8-1.1a17,17,0,0,1,1.59-1.06l.1.12,1,1c1,1,2.66-.58,1.61-1.61l-.58-.57c1.41-.54,2.63-.54,3.56,1.2,1.18,2.21-.06,2.72-1.56,4.25-3.76,3.83-8.57,6.47-12.37,10.18C20,55.51,19.43,56.73,20.73,58.35Z"/><path class="cls-1" d="M80.68,43.79c-3.58-2.68-7.87-6.36-12.24-7.65-2.89-.86-7.35.27-7.55,3.9s5.34,7.18,7.75,9.3A53.9,53.9,0,0,0,73.28,53c.7.49,1.43,1,2.14,1.43,1.56,1.05,2.17.83,1.22,2.34-2.41,3.81-21.42,12.91-14.14,18.82,3.16,2.57,7.59.4,10.4-1.56,5.31-3.68,9.66-8.3,14.67-12.33C95.19,55,86,47.74,80.68,43.79ZM86,60.07c-3.85,3.1-7.16,6.67-11.18,9.56a41.11,41.11,0,0,1-5.25,3.76c-2.06,1-3.81,1.82-5.06-.51a2.4,2.4,0,0,1-.33-2.13c.55.44,1.09.89,1.67,1.3a1.15,1.15,0,0,0,1.56-.41A1.16,1.16,0,0,0,67,70.09c-.46-.33-.9-.69-1.35-1l.42-.41c.33-.34.68-.66,1-1a18.93,18.93,0,0,0,1.43,1.43,1.17,1.17,0,0,0,1.61,0,1.15,1.15,0,0,0,0-1.61,17.39,17.39,0,0,1-1.33-1.32q.82-.68,1.66-1.32a21,21,0,0,0,1.46,1.75c1,1.05,2.63-.56,1.61-1.61a18.1,18.1,0,0,1-1.27-1.51l1.39-1a15.81,15.81,0,0,1,1.18,1.31,1.15,1.15,0,0,0,1.61,0,1.16,1.16,0,0,0,0-1.61c-.32-.38-.64-.75-1-1.1q.9-.72,1.75-1.48a6.06,6.06,0,0,1,.81.71c1,1.06,2.62-.55,1.61-1.61a7.84,7.84,0,0,0-.75-.69,3.89,3.89,0,0,0,.85-1.39l1.41.09a1.14,1.14,0,0,0,0-2.28l-2-.12,0,0a7.68,7.68,0,0,0-1-1l1.09-.51a1.15,1.15,0,0,0,.41-1.56A1.16,1.16,0,0,0,78,50.71l-2.06,1L74.86,51l.92-.45A1.15,1.15,0,0,0,76.2,49a1.16,1.16,0,0,0-1.56-.41l-1.87.91a.84.84,0,0,0-.14.12c-.36-.24-.71-.49-1-.74l-.4-.35q.64-.36,1.31-.67a1.15,1.15,0,0,0,.41-1.56,1.16,1.16,0,0,0-1.56-.41,20.93,20.93,0,0,0-2,1.06l-1.3-1.22a5.6,5.6,0,0,1,.77-.4,1.18,1.18,0,0,0,.79-1.4,1.14,1.14,0,0,0-1.4-.79,9.58,9.58,0,0,0-1.85,1c-.32-.25-.71-.55-1.09-.87a4.81,4.81,0,0,1,.91-.64c1.29-.69.14-2.65-1.15-2a6.74,6.74,0,0,0-1.12.78C63,37.4,66.72,38,68.7,38.73c4.07,1.54,8,4.87,11.43,7.47C84.08,49.2,92.07,54.73,86,60.07Z"/><path class="cls-1" d="M52.84,35.71c-3.33-.09-4.31,2.87-5.23,5.65a144.27,144.27,0,0,0-4.82,19C42.17,63.67,38,78,45.62,77.15c3-.35,4.89-3.52,5.83-6,2-5.34,3.06-11.26,4.24-16.83.58-2.72,1.09-5.45,1.61-8.18.35-1.85,1.33-4.25,1.09-6.17C58,36.87,55.68,35.79,52.84,35.71Zm-.05,21.17Q51.95,60.6,51,64.29c-.82,3.12-1.48,9.39-5.37,9.28-2.14-.06-2.25-.26-2.17-1.64a5.27,5.27,0,0,1,.81.22,1.14,1.14,0,0,0,.6-2.19,6.89,6.89,0,0,0-1.27-.28q.06-.61.15-1.23a9.3,9.3,0,0,0,1.52.17,1.14,1.14,0,0,0,0-2.28,6.41,6.41,0,0,1-1.16-.14c0-.23.08-.46.11-.69s0-.24.06-.36a12,12,0,0,1,1.48.26,1.14,1.14,0,0,0,.6-2.19,14.67,14.67,0,0,0-1.7-.31c.11-.67.22-1.33.34-2a8.48,8.48,0,0,1,1.9.47,1.15,1.15,0,0,0,1.4-.79,1.16,1.16,0,0,0-.79-1.4,9.93,9.93,0,0,0-2.06-.49c.1-.49.19-1,.3-1.48l1.55.36c1.43.33,2-1.87.6-2.19L46.17,55l.32-1.64,1.07.28a1.14,1.14,0,0,0,.6-2.19L47,51.13l.19-.86,1.92.41a1.16,1.16,0,0,0,1.4-.79,1.15,1.15,0,0,0-.79-1.4l-2-.43q.17-.68.34-1.35c.44.1.88.16,1.32.28a1.14,1.14,0,0,0,.6-2.19c-.43-.11-.87-.18-1.3-.27.09-.29.18-.57.27-.85a5.81,5.81,0,0,1,1.21.31,1.15,1.15,0,0,0,1.4-.79,1.16,1.16,0,0,0-.79-1.4,5.81,5.81,0,0,0-1-.27c.14-.34.29-.65.44-.95a4.11,4.11,0,0,0,1.1.34,1.18,1.18,0,0,0,1.4-.79,1.15,1.15,0,0,0-.79-1.4,3,3,0,0,1-.37-.1A1.9,1.9,0,0,1,52.84,38C58.26,38.13,53.38,54.27,52.79,56.88Z"/></svg>