<svg id="Layer_1" data-name="Layer 1" xmlns="http://www.w3.org/2000/svg" viewBox="0 0 100 100"><defs><style>.cls-1{fill:#4d4d4d;}</style></defs><title>09</title><path class="cls-1" d="M96.42,38.15A6.51,6.51,0,0,0,94,37.64c.38-4.56.83-9.11,1.64-13.62,0,0,0,0,0,0a5.38,5.38,0,0,0,2.55-.9c2.84-2.23,2.38-11.23-2-11.62-5.35-.18-10.77-.23-16.11-.15-2.92,0-7.88-.94-10.46.48-2.41,1.32-2.31,4.88-2.23,7.33.09,2.77.56,4.22,3.36,4.55.25,4.48.69,8.94,1.19,13.39a1.56,1.56,0,0,0,0,.2c-2.08-.08-4.16-.14-6.24-.12-2.43,0-8.67-1.11-10.66.57-1.32,1.12-1.4,5,0,6.11a4.31,4.31,0,0,0,2.18.62c0,.09,0,.18,0,.28q-2.09,0-4.18,0a5.52,5.52,0,0,0-3.55-1.1,3.45,3.45,0,0,0-3.16,1.2c-1.27,0-2.55-.06-3.82-.14,0-.06,0-.11,0-.17a4.2,4.2,0,0,0,2.05-.59c1.54-1.1,1.63-5,.16-6.16-2.11-1.67-8.13-.55-10.66-.57-2.08,0-4.16,0-6.24.12a1.58,1.58,0,0,0,0-.2c.38-4.47,1-8.91,1.19-13.39,2.8-.31,3.28-1.8,3.36-4.55.07-2.17.2-5.85-1.9-7.17-2.56-1.62-7.85-.59-10.8-.63-5.34-.09-10.77,0-16.11.15C-.58,11.86-1,20.65,1.67,23a5.12,5.12,0,0,0,2.66,1s0,0,0,0C5.15,28.53,5.6,33.08,6,37.64a6.56,6.56,0,0,0-2.41.51,3.75,3.75,0,0,0-.66,6A5.91,5.91,0,0,0,5.8,45c1.07,6.14,1.52,12.36,2.61,18.49A3.1,3.1,0,0,0,7,64.09c-1.45,1.2-1.39,5,0,6.15,1.81,1.57,8.38.59,10.5.59s4.24-.13,6.35-.25c.25,2.76.14,5.51.19,8.27l-.3.07c-3.12,1-3.09,7.62-.58,9.34,1.75,1.2,5.45.49,7.45.51,4.09,0,8.22,0,12.31-.1,3.45-.38,4-7.05,1.83-9.11a3.73,3.73,0,0,0-1.91-.85c-.07-2.92-.12-5.83,0-8.75a3.55,3.55,0,0,0,1.53-5.42,3.29,3.29,0,0,0-1.52-1c0-.08,0-.16,0-.24.44,0,.88-.08,1.33-.1a16.52,16.52,0,0,1,2.18.1c.31,1.19.72,1.39,2.1,1.56s4.34.41,5.31-.76a1.63,1.63,0,0,0,.32-.73,23.65,23.65,0,0,0,3.29,0c0,.07,0,.13,0,.2a3.29,3.29,0,0,0-1.52,1,3.54,3.54,0,0,0,1.52,5.42c-.18,2.92,0,5.84,0,8.76a4.16,4.16,0,0,0-1.79.76c-2.33,1.9-1.72,8.82,1.72,9.2,3.93.13,7.91.16,11.84.11,2.2,0,5.68.65,7.67-.4,2.81-1.48,2.84-8.41-.33-9.46l-.3-.07c0-2.76-.08-5.52.17-8.27,2.12.12,4.23.26,6.35.25s8.75,1,10.5-.59c1.37-1.25,1.48-4.92,0-6.15a3.11,3.11,0,0,0-1.46-.54c1.24-6.11,1.78-12.33,2.62-18.5a6,6,0,0,0,2.88-.92A3.74,3.74,0,0,0,96.42,38.15ZM69.6,20.08a7,7,0,0,1,0-2.65,5.74,5.74,0,0,1,.5-2.33l1.59,3.25c.6,1.23,2.44.15,1.84-1.07L71.8,13.74a6.46,6.46,0,0,1,.73-.2q1.17,1.66,2.26,3.37c.73,1.15,2.58.09,1.84-1.07-.55-.86-1.12-1.69-1.7-2.53h1.15a18.91,18.91,0,0,1,1.73,2.95,1.07,1.07,0,0,0,1.46.38,1.09,1.09,0,0,0,.38-1.46,18.9,18.9,0,0,0-1-1.77c.45,0,.9,0,1.32,0a1.14,1.14,0,0,0,.17.27,25.07,25.07,0,0,1,2.07,2.76c.74,1.15,2.59.08,1.84-1.07-.44-.68-.92-1.33-1.41-2h1.6a1.19,1.19,0,0,0,.12.16,13.51,13.51,0,0,1,1.89,2.78c.63,1.22,2.47.14,1.84-1.07A15.1,15.1,0,0,0,87,13.43h1.29q.91,1.42,1.94,2.76a1.1,1.1,0,0,0,1.46.38A1.07,1.07,0,0,0,92,15.11c-.41-.53-.8-1.08-1.18-1.63l1.24,0,0,.06a32.6,32.6,0,0,0,2.44,3.56,1.07,1.07,0,0,0,1.5,0,1.09,1.09,0,0,0,0-1.5c-.52-.66-1-1.36-1.44-2.06l1.65,0c1.2.11,1.35,3.87,1.16,4.82-.32,1.61-.8,2.65-2.59,3.12-2.45.64-5.82.12-8.36.13q-4.34,0-8.68,0C75.7,21.62,70.7,22.5,69.6,20.08Zm5.24,17c-.49-4.38-.92-8.77-1.17-13.17,4.24.21,8.64-.08,12.8-.11,1.47,0,3.94.3,6.31.34-.76,4.47-1.23,9-1.61,13.51h-.95c-3-.06-6.09.06-9.14,0-2.08-.06-4.16-.16-6.24-.26A1.52,1.52,0,0,0,74.84,37.07ZM54,55c0-1.42-.09-2.84-.14-4.26a30.29,30.29,0,0,1,3.37.06q0,2.89,0,5.77a12.21,12.21,0,0,0-1.3.05c-.62,0-1.25,0-1.87,0C54,56.07,54,55.51,54,55Zm3.29-8.1c0,.59,0,1.18,0,1.78a30.29,30.29,0,0,0-3.45-.06c0-.5.06-1.13.06-1.75C55,46.87,56.16,46.88,57.3,46.86ZM42.73,56.52q0-3.13,0-6.26a14.18,14.18,0,0,1,3.16.11c0,.64.07,1.29.07,1.92,0,1.36-.08,2.86-.12,4.38A25.61,25.61,0,0,1,42.73,56.52Zm3.06-9.62a12.39,12.39,0,0,0,0,1.35,17.36,17.36,0,0,0-3.08-.09q0-.7,0-1.39Q44.22,46.87,45.78,46.9ZM18.91,37.64c-3,.07-6.1,0-9.14,0H8.81c-.38-4.52-.84-9-1.6-13.51,2.39,0,4.88-.36,6.31-.35,4.17,0,8.57.3,12.8.1-.24,4.41-.8,8.78-1.17,13.18a1.53,1.53,0,0,0,0,.31C23.07,37.47,21,37.57,18.91,37.64ZM2.57,18.41a8.72,8.72,0,0,1,0-2.16l.75,1.08a1.09,1.09,0,0,0,1.46.38,1.07,1.07,0,0,0,.38-1.46l-1.75-2.5a.68.68,0,0,1,.36-.16l1,0Q6,15.38,7.36,17.06c.88,1.05,2.38-.46,1.5-1.5-.55-.66-1.08-1.34-1.59-2l1.24,0A27.13,27.13,0,0,0,11,16.73c.91,1,2.41-.48,1.5-1.5-.5-.57-1-1.17-1.41-1.78h1.6a38.11,38.11,0,0,0,2.25,3.28,1.1,1.1,0,0,0,1.46.38,1.07,1.07,0,0,0,.38-1.46c-.55-.71-1.05-1.45-1.55-2.2h1.6L18.34,16a1.06,1.06,0,0,0,1.84-1.07l-.89-1.47h1.55a36.35,36.35,0,0,0,2.06,3.06,1.1,1.1,0,0,0,1.46.38,1.07,1.07,0,0,0,.38-1.46c-.5-.66-1-1.34-1.41-2,.51,0,1,0,1.51,0a1.45,1.45,0,0,0,.22.37l2.41,3a1.07,1.07,0,0,0,1.5,0,1.09,1.09,0,0,0,0-1.5l-1.27-1.59c1.83.38,2.51,1.15,2.68,3.16a10.73,10.73,0,0,1,0,3.24c-1,2.28-5.43,1.53-7.42,1.55q-4.72.06-9.45,0c-2.37,0-5.33.4-7.65-.11C3.81,21.09,3,20.59,2.57,18.41ZM4.82,40.67c.94-1.08.81-.54,1.81-.78,3.72-.89,8.46,0,12.28-.13,6.38-.2,12.71-.42,19.09-.45a17.78,17.78,0,0,1,3.67,0c2.14.47,2.64,2.29.2,2.88-3.52.86-8.15.68-11.77.62-6.24-.11-12.5.35-18.75.07a30.73,30.73,0,0,1-4.93-.31C5,42.22,3.63,42,4.82,40.67Zm9.09,4.38c5.18.06,10.35-.24,15.52-.15,3.08.05,6.13-.18,9.2-.4.33,0,.74,0,1.17,0,0,6.16.13,12.34.09,18.5-2-.11-4.16.1-5.51.05-4.62-.18-9.24.21-13.86.13a71.67,71.67,0,0,0-8.33.18c-.3,0-.65,0-1,0a1.51,1.51,0,0,0,0-.54C10.11,57,9.65,51,8.68,45.17,10.7,45.18,12.72,45,13.91,45.05Zm-.57,23.57c-1.35,0-6.85.71-5.17-2.1,1.3-2.18,9.44-1.29,11.48-1.24,5.65.13,11.29-.34,16.94,0,1.41.09,4.12-.22,5.14.85,1.57,1.66-1.27,2-2.79,2.09-3.76.11-7.52,0-11.28,0C22.85,68.39,18.13,68.62,13.34,68.62Zm14.3,1.77c3.86-.08,8.26.55,12.23.13-.05,2.68,0,5.35.05,8-1.68.05-3.37.27-4.43.26q-3.32,0-6.65,0c-.6,0-1.31-.05-2-.1,0-2.74.06-5.47-.19-8.2,0,0,0-.07,0-.1ZM42.85,86.54c-3.77.12-7.59.14-11.37.12-3.06,0-8.84.84-7.83-3.92,0,0,0,0,0-.07.2.3.41.6.59.91a1.06,1.06,0,0,0,1.84-1.07c-.28-.46-.58-.92-.88-1.36a6.26,6.26,0,0,1,1.2-.31s0,.07.06.09a10.47,10.47,0,0,1,1,1.52,1.06,1.06,0,0,0,1.84-1.07c-.14-.24-.29-.47-.45-.7.57,0,1.15,0,1.71.06a1.18,1.18,0,0,0,.09.18q.51.84,1.08,1.65a1.09,1.09,0,0,0,1.46.38,1.07,1.07,0,0,0,.38-1.46c-.13-.19-.26-.4-.39-.59l.78,0c.52,0,1.07,0,1.63,0v0l.89,1.57a1.06,1.06,0,0,0,1.84-1.07l-.34-.6q.62,0,1.22,0l0,.07a13,13,0,0,1,1,1.78,1.07,1.07,0,0,0,1.46.38,1.09,1.09,0,0,0,.38-1.46c-.05-.11-.11-.22-.17-.33.74.24,1.19.69,1.52,2.15C43.59,84,43.64,86.45,42.85,86.54Zm-.12-25.42c0-.82,0-1.65,0-2.47a25.74,25.74,0,0,0,3,.16c0,.78,0,1.54.12,2.29A14.89,14.89,0,0,0,44.06,61C43.61,61,43.17,61.09,42.73,61.12Zm9.22-.07c-.41,1.72-2.19,2.43-3.35,1.11s-.52-6.68-.55-8.68-.92-7.83,1.57-7.77c2.67.1,2,2.67,2.12,4.68.06,1.52.11,3,.14,4.57C51.93,56.79,52.37,59.27,51.95,61.05Zm2.14.14c0-.81,0-1.62,0-2.44.5,0,1,0,1.49,0a9.49,9.49,0,0,1,1.63-.06c0,.83,0,1.66,0,2.48A16.08,16.08,0,0,1,54.09,61.2ZM76.36,82.74c1,4.63-4.35,3.88-7.36,3.92-3.93,0-7.91,0-11.84-.11-.76-.08-.69-2.23-.63-2.63a4.67,4.67,0,0,1,.42-1.45l.5.73a1.09,1.09,0,0,0,1.46.38,1.07,1.07,0,0,0,.38-1.46l-.71-1,.14-.06a5.83,5.83,0,0,1,1.21-.23q.81,1.35,1.74,2.62a1.1,1.1,0,0,0,1.46.38,1.07,1.07,0,0,0,.38-1.46c-.37-.51-.72-1-1.07-1.55l1.42.09q.66,1,1.37,1.92a1.1,1.1,0,0,0,1.46.38,1.07,1.07,0,0,0,.38-1.46c-.2-.27-.4-.56-.6-.83l1.39-.09,0,0q.6.92,1.17,1.86a1.06,1.06,0,0,0,1.84-1.07c-.19-.32-.39-.63-.59-.94.44,0,.89,0,1.32,0a19,19,0,0,0,1.23,2.46,1.06,1.06,0,0,0,1.84-1.07c-.22-.36-.42-.73-.61-1.1C75.27,81.24,76.15,81.78,76.36,82.74Zm-3-12.2c-.24,2.64-.14,5.28-.16,7.93-2.68-.08-5.76.33-7.94.33-1.28,0-3.27-.26-5.19-.3,0-2.66-.12-5.33,0-8,4,.43,8.41-.2,12.27-.12l1,0S73.37,70.5,73.37,70.54Zm13.5-1.91c-4.87,0-9.65-.23-14.51-.36-3.51-.07-7,.09-10.52,0-.86,0-4.61.08-4.4-1.58.19-1.45,4.46-1.28,5.5-1.35,5.81-.38,11.61.09,17.42,0,2.63-.06,8.52-.91,10.72.86C94.36,68.79,88.56,68.62,86.86,68.62Zm2-5.78a1.49,1.49,0,0,0,0,.55c-.38,0-.73,0-1,0a71.66,71.66,0,0,0-8.33-.18c-4.62.07-9.23-.31-13.86-.13-1.35.05-3.51-.16-5.51-.05,0-6.15-.11-12.35.09-18.5.45,0,.86,0,1.17,0,3.07.22,6.12.46,9.2.4,5-.1,10,.18,15,.15,1.3,0,3.54.15,5.74.14C90.57,51.09,90,57,88.83,62.85ZM94.3,42.49c-1.44.48-3.67.26-5.22.34-6.39.32-12.8-.15-19.19,0a60.71,60.71,0,0,1-11.16-.59c-2.17-.38-3.38-1.91-.84-2.89,1-.39,2.77,0,3.82,0,6.48.05,12.9.26,19.38.46,3.76.09,8.37-.7,12.05.13C94.77,40.26,97.37,41.47,94.3,42.49Z"/><path class="cls-1" d="M16.36,56.44c.84,1.08,2.34-.44,1.5-1.5a44.86,44.86,0,0,0-4.08-4.54c-1-1-2.49.55-1.5,1.5A44.87,44.87,0,0,1,16.36,56.44Z"/><path class="cls-1" d="M20.88,56.24c.81,1.09,2.66,0,1.84-1.07l-4-5.33c-.81-1.09-2.66,0-1.84,1.07Z"/></svg>