<svg id="Layer_1" data-name="Layer 1" xmlns="http://www.w3.org/2000/svg" viewBox="0 0 100 100"><defs><style>.cls-1{fill:#4d4d4d;}</style></defs><title>11</title><path class="cls-1" d="M83.74,14.93C68.54,1.38,45.36-.4,27.66,8.82,9.5,18.28-2.49,38.37.44,59,3.79,82.63,30.93,94.82,52.2,95.34A48.69,48.69,0,0,0,79.51,88C88,82.95,93.44,75.81,97.14,66.63,104.17,49.13,97.7,27.38,83.74,14.93ZM97,51.73c-4.46.94-8.91,1.67-13.37,2.25,0-1.89-.07-3.82-.24-5.83a63.48,63.48,0,0,0-3.11-15.06,63.56,63.56,0,0,0,9.45-6.26A47.32,47.32,0,0,1,97,51.73ZM23.64,54.48a50.44,50.44,0,0,1,2.69-19.13A88,88,0,0,0,46.24,40.1a47.05,47.05,0,0,0,8,.36q.79,7.81,1.21,15.64l-5.24.19c-8.78.3-17.66.51-26.48.07C23.7,55.75,23.66,55.11,23.64,54.48Zm30.3-17.13a47.73,47.73,0,0,1-10-.68,92.79,92.79,0,0,1-16.53-4.22c.64-1.5,1.37-3,2.19-4.52,4.55-8.42,10.89-16.47,19.41-21.1Q52.24,22,53.94,37.35ZM52.15,6.8c11.91,4.42,20,13.68,24.36,24.85A57,57,0,0,1,57,37.16Q55.28,21.89,52.15,6.8Zm-1.9,52.55,5.38-.2q.23,5.4.29,10.82c-.92,0-1.84,0-2.76,0a83.44,83.44,0,0,0-23.29,3.87,38.77,38.77,0,0,1-5.71-14.43C32.85,59.83,41.59,59.65,50.24,59.35ZM53.16,73c.92,0,1.84,0,2.77,0q0,9.44-.54,18.89A42,42,0,0,1,31.71,76.48,80.37,80.37,0,0,1,53.16,73ZM45.93,91.82a60.52,60.52,0,0,1-27-10,61.73,61.73,0,0,1,9.65-4.34A45.85,45.85,0,0,0,45.93,91.82ZM59,73.05a79.43,79.43,0,0,1,15.66,1.85c-4,6.93-9,12.6-16.17,16.36Q59,82.16,59,73.05Zm0-3q-.05-5.5-.29-11c7.29-.33,14.53-.79,21.74-1.6a37,37,0,0,1-4.25,14.74A82.17,82.17,0,0,0,59,70Zm-.44-14q-.42-7.87-1.22-15.71a60,60,0,0,0,20.23-5.79A60.27,60.27,0,0,1,80.4,49.32c.12,1.73.17,3.4.15,5C73.24,55.19,65.91,55.66,58.52,56ZM88,24.31a58.6,58.6,0,0,1-8.8,5.94C75.22,20.33,68.52,11.88,59,6.63a55.75,55.75,0,0,1,16.73,6.54A38.63,38.63,0,0,1,88,24.31ZM22.83,15.44A48.76,48.76,0,0,1,43.24,6.9C36.37,11.88,31,19,27,26.39c-.89,1.64-1.67,3.27-2.36,4.91a43.16,43.16,0,0,1-11.08-7A49.43,49.43,0,0,1,22.83,15.44ZM11.73,26.72a47.8,47.8,0,0,0,11.8,7.45,53.66,53.66,0,0,0-2.86,21.92s0,.07,0,.11a128.32,128.32,0,0,1-17.9-2.39C2.46,44.28,6,34.64,11.73,26.72ZM5.65,66.28A32,32,0,0,1,3,57a135,135,0,0,0,18,2.29,40.6,40.6,0,0,0,5.84,15.64,62.53,62.53,0,0,0-10.52,5A37.81,37.81,0,0,1,5.65,66.28ZM64.78,90.94c5.42-4,9.51-9.19,12.92-15.24a47.43,47.43,0,0,1,8.19,3.2A43.76,43.76,0,0,1,64.78,90.94ZM88,76.55A49.65,49.65,0,0,0,79.15,73,40.44,40.44,0,0,0,83.49,57c4.45-.57,8.9-1.28,13.34-2.19a36.71,36.71,0,0,1-.6,4.27A39.84,39.84,0,0,1,88,76.55Z"/><path class="cls-1" d="M2.82,27.49A62,62,0,0,1,16.54,10c1.1-1-.52-2.59-1.61-1.61A63.69,63.69,0,0,0,.85,26.33C.16,27.63,2.13,28.79,2.82,27.49Z"/><path class="cls-1" d="M3,19.24a26.5,26.5,0,0,1,4.87-6.59c1-1-.57-2.65-1.61-1.61A28.51,28.51,0,0,0,1,18.09C.36,19.39,2.33,20.54,3,19.24Z"/><path class="cls-1" d="M91,83.76A37.35,37.35,0,0,1,75.48,94.64c-1.37.51-.78,2.71.61,2.2A39.61,39.61,0,0,0,92.64,85.37C93.59,84.26,92,82.64,91,83.76Z"/><path class="cls-1" d="M89.06,91.34a13.34,13.34,0,0,1-4.39,3.44c-1.33.63-.17,2.6,1.15,2A14.93,14.93,0,0,0,90.68,93C91.63,91.84,90,90.22,89.06,91.34Z"/></svg>