<svg id="Layer_1" data-name="Layer 1" xmlns="http://www.w3.org/2000/svg" viewBox="0 0 100 100"><defs><style>.cls-1{fill:#4d4d4d;}</style></defs><title>13</title><path class="cls-1" d="M33.75,22.57c-10.6,6.64-17,21.31-12.5,33.37a48.38,48.38,0,0,0,5.68,11.14A55.81,55.81,0,0,0,31.05,72c2.14,2.41,2.75,4.27,3.55,7.19a6.46,6.46,0,0,0,1.22,2.64,3.11,3.11,0,0,0-.52,3.73c-1.88,2.43-1,3.91,1,4.82C33.18,95,39.69,96,45.63,96a8.36,8.36,0,0,0,.61,2.68c.6,1.2,2.2,1.32,3.38,1.3A9.51,9.51,0,0,0,54,99.15c1.1-.67,1.36-2.19,1.46-3.47,3.41.08,8.6.34,10.31-1.83,1.05-1.33.55-2.56-.41-3.5,1.65-.89,2.29-2.28.94-4.44.75-1.16.31-2.61-.9-3.86A4.85,4.85,0,0,0,66,81c.77-1.62.31-3.39.71-5.09.61-2.58,2.31-3.9,3.7-6,2.06-3.06,4.91-6,6.53-9.31,5.28-10.79,3.11-25.82-5.3-34.36C61.46,15.93,46,14.91,33.75,22.57ZM47.8,44.25a3.32,3.32,0,0,1,2.92-3A3.33,3.33,0,0,1,52,44.82a5.9,5.9,0,0,1-1.91,4.36C48.66,47.77,47.58,46,47.8,44.25ZM49.88,52a16,16,0,0,0,5.06,2.83c-2.4,8.27-1.84,18.28-1.35,26.46-1,0-2-.08-2.84-.07-1.31,0-2.68,0-4.06-.06-.09-3.55.25-17.23-1.93-26.71A19.49,19.49,0,0,0,49.88,52Zm.87,32.11c3.48,0,7-.2,10.48-.48a11.77,11.77,0,0,0,2.29-.35c2.12,2.15-4.07,2.6-5.57,2.66-2.36.09-4.72,0-7.08,0-2.17-.07-4.34-.14-6.5-.27-1.47-.09-9.17-1-6.58-2.67.27.07.56.14.88.19A69.72,69.72,0,0,0,50.75,84.1Zm12.25,5-2.57.32c-1.08.1-2.17.13-3.25.16-2.42.06-4.84,0-7.26,0-2,0-3.9,0-5.86-.14-.55,0-7.89-.25-7-2.44,3.13,1.49,8.88.88,11.58,1,4.61.18,10.62,1.05,15.16-.45ZM52.4,97.45a9.13,9.13,0,0,1-2.78.38,3,3,0,0,1-1.22-.09c-.32-.15-.07,0-.28-.3A4.17,4.17,0,0,1,47.79,96c2.48-.07,4.6-.24,5.49-.3C53.21,96.43,53,97.22,52.4,97.45ZM63,91.26a2.91,2.91,0,0,1-3.32,1.9l-3.34.19c-1.89.11-3.79.22-5.68.31-1.49.07-14.48.5-12.32-2.47a1.15,1.15,0,0,0,.09-.15c4,.9,9.75.68,11.51.7s8.52.49,13-.54ZM76.1,53A20.63,20.63,0,0,1,72,62.55c-2,2.66-4.09,5.38-5.91,8.17A14.36,14.36,0,0,0,64,75.17c-.55,2.26.33,4.36-2.74,5.55a15.67,15.67,0,0,1-5.46.62c-.49-8.27-.93-17.92,1.38-26.09,4.15.34,10.24-1.49,9.17-6.39-1.53-7-8.07-2.05-9.89,1.91-.28.6-.53,1.22-.77,1.85a13.69,13.69,0,0,1-2.3-1,14.21,14.21,0,0,1-1.68-1.09c3.1-2.83,4.36-6.47,1.2-10.14-2.57-3-6.34-1-7.16,2.76-.58,2.64.67,5.25,2.64,7.36a14.5,14.5,0,0,1-4.13,1.85c-1.63-5.58-4.36-9-8.93-6.73-2.66,1.34-2.33,5.06-.6,7.05,2,2.3,5,2.71,8,2.19.83,3.86.81,7.91,1,11.83L44.5,81a30.26,30.26,0,0,1-4-.58c-2-.45-2.45-.4-3.28-2.57-.55-1.43-.47-3-1.2-4.4-1.76-3.4-5.36-5.85-7.47-9.1C26.25,60.8,23.94,56.48,23,52.29c-1.41-6.62.72-13.67,4.33-19.15,5.24-8,13.31-12,22.73-12.71A24.88,24.88,0,0,1,72.21,31.48,28.21,28.21,0,0,1,76.1,53Zm-18.28.17c0-.12.08-.24.12-.36a11.32,11.32,0,0,1,2.55-4.25q5.71-2,2.15,3.61C61.47,53.26,59.63,53.41,57.81,53.14Zm-15.65-.33a9.77,9.77,0,0,1-1.81,0c-1.48-.12-6.35-1.7-4.77-4.43,2.14-3.71,5.75,2,6.34,3.63C42,52.29,42.09,52.55,42.17,52.81Z"/><path class="cls-1" d="M90.13,24A51.86,51.86,0,0,0,81,28.69c-1.5,1.08-.06,3.58,1.46,2.49a51.86,51.86,0,0,1,9.1-4.73C93.28,25.7,91.81,23.21,90.13,24Z"/><path class="cls-1" d="M69.18,17.21a67.38,67.38,0,0,0,5.48-8.75A1.45,1.45,0,0,0,72.16,7a62.92,62.92,0,0,1-5,8.17C66,16.62,68,18.68,69.18,17.21Z"/><path class="cls-1" d="M50.89,11.16q.34-4.88.31-9.76a1.45,1.45,0,0,0-2.89,0q0,4.89-.31,9.76C47.87,13,50.76,13,50.89,11.16Z"/><path class="cls-1" d="M30.55,17.18c1,1.54,3.53.09,2.49-1.46-2-2.91-4.16-5.8-5.41-9.1-.65-1.72-3.45-1-2.79.77C26.2,11,28.44,14,30.55,17.18Z"/><path class="cls-1" d="M18.61,28.43a41.34,41.34,0,0,0-9.21-5.08c-1.73-.69-2.48,2.1-.77,2.79a38.52,38.52,0,0,1,8.52,4.79C18.65,32,20.09,29.52,18.61,28.43Z"/><path class="cls-1" d="M40.49,26.24c-6.74,2-12.83,9.21-13.76,16.13-.18,1.36,1.9,2,2.09.58C29.65,36.76,35,30.1,41.07,28.32A1.08,1.08,0,0,0,40.49,26.24Z"/><path class="cls-1" d="M41.84,30a8.6,8.6,0,0,0-5.26,3.35c-.84,1.09.68,2.63,1.53,1.53A6.89,6.89,0,0,1,42.41,32C43.79,31.85,43.2,29.76,41.84,30Z"/></svg>