<svg id="Layer_1" data-name="Layer 1" xmlns="http://www.w3.org/2000/svg" viewBox="0 0 100 100"><defs><style>.cls-1{fill:#4d4d4d;}</style></defs><title>14</title><path class="cls-1" d="M92.35,5.4C86.76.2,81.47-1.31,74.3,1.66,68,4.29,63,10,58,14.58c-7.53,6.87-14.78,14-21.91,21.3Q25.77,46.42,15.82,57.33c-3,3.24-6.29,6.45-8.85,10.05a1.72,1.72,0,0,0-.27.37,1.67,1.67,0,0,0-.22.45C4.73,71.75,4,76.08,3.12,79.86A134.88,134.88,0,0,0,0,98.23C-.1,99.41,1.14,100,2.1,99.82c9.66-1.51,19.2-3.65,28.83-5.35,3.92-.69,5.62-3.39,8.37-6.23Q46.18,81.12,53,73.95c8.5-8.87,17-17.74,25.64-26.48,7.12-7.2,17.2-15,20.59-24.93C101.77,15.22,97.46,10.17,92.35,5.4ZM82.13,39.66c-3.95-3.27-7-7.08-10.51-10.85-3.74-4-7.74-7.66-11.76-11.33l2.2-2q11.18,11,22.07,22.27Q83.13,38.71,82.13,39.66Zm-8.86,8.59c-7-7.9-15.16-14.68-23.09-21.62l2-1.89c8.42,6.18,15.57,14.32,22.91,21.7l-.84.84ZM30.6,79.92h0c-3.14.19-6.29.19-9.44.28-.11-2.4-.09-6.22-1-8.44,5.67-5.56,10.56-11.63,16-17.42C42.25,47.79,48.73,41.58,55,35.25c3.28,2.87,6.52,5.78,9.63,8.81C53.61,56.29,42.37,68.36,30.6,79.92ZM58,19.17l1.75,1.61a48,48,0,0,1-3.72,3.84c-.69-.55-1.41-1.08-2.12-1.61Q56,21.08,58,19.17Zm8.08,14.6a38.57,38.57,0,0,0,3.64-3.32l.12.12c.69.74,1.36,1.47,2,2.2a29.08,29.08,0,0,1-3.41,3.39Q67.3,35,66.1,33.77ZM64.34,32c-.68-.66-1.36-1.33-2.05-2q1.71-1.84,3.49-3.62,1.13,1.11,2.24,2.24A38.57,38.57,0,0,1,64.34,32Zm-3.89-3.65q-1.22-1.1-2.48-2.17a48,48,0,0,0,3.62-3.76q1.21,1.12,2.4,2.25Q62.18,26.51,60.45,28.38Zm9.75,9.54a29.07,29.07,0,0,0,3.35-3.31c.73.82,1.47,1.62,2.21,2.41q-1.65,1.62-3.16,3.37Zm-41.08,10q9.16-9.66,18.67-19l5.38,4.68c-6.27,6.29-12.7,12.47-18.77,19C29,58.37,24.1,64.44,18.44,70a25.46,25.46,0,0,0-2.89-.44c-1.82-.33-3.64-.61-5.47-.85C15.42,61.2,22.82,54.52,29.11,47.88ZM16.52,94.13A71.75,71.75,0,0,0,5.73,83.37c.19-.88.38-1.76.58-2.63C7,77.65,7.59,74.06,8.83,71c2.63.24,6.75.29,9.06,1.47-.9-.29,0,1.65.15,2.92.26,2,.49,4,.73,6.07A1.26,1.26,0,0,0,20,82.71c2.33-.09,4.74.06,7.06-.16,2.53-.23,2.44-.74,2.72,1.75.26,2.27.43,4.54.59,6.82-.29.1-.58.19-.87.27C25.24,92.45,20.89,93.34,16.52,94.13Zm35.59-24q-5.89,6.15-11.79,12.28c-2.39,2.48-4.67,5.57-7.54,7.48-.18-2.62-.41-5.25-.8-7.85C43.88,70.38,55.25,58.17,66.43,45.8q2.33,2.35,4.53,4.82Q61.48,60.33,52.1,70.14ZM76.82,44.71q-1.25-1.26-2.5-2.54,1.52-1.75,3.17-3.38c.9.88,1.84,1.74,2.84,2.58C79.14,42.5,78,43.61,76.82,44.71Zm18.38-21a49.32,49.32,0,0,1-8.76,11.7q-10.83-11.23-22-22.16l.48-.45C70,8.26,76.2,1.52,83.73,3.6c3.48,1,6.33,4,8.68,6.59C96.23,14.41,98,18,95.21,23.67Z"/><path class="cls-1" d="M74.87,10.18c-.29-1.57-2.68-.9-2.39.66a49.81,49.81,0,0,0,1.71,6.62c.5,1.51,2.9.86,2.39-.66A49.83,49.83,0,0,1,74.87,10.18Z"/><path class="cls-1" d="M79.07,9.33c-.5-1.51-2.9-.86-2.39.66l1.86,5.6c.5,1.51,2.9.86,2.39-.66Z"/></svg>