<svg id="Layer_1" data-name="Layer 1" xmlns="http://www.w3.org/2000/svg" viewBox="0 0 100 100"><defs><style>.cls-1{fill:#4d4d4d;}</style></defs><title>15</title><path class="cls-1" d="M20.4,79c2.27-2.4,4.68-4.76,6.74-7.35,1-1.21,1.45-2.34.95-3.75a1.16,1.16,0,0,0-1-1c-3.8-1.36-7.09,3.46-9.42,5.88-3,3.09-7.06,6.57-8.29,10.78a1.14,1.14,0,0,0,.29,1.1C13.47,88.46,18.11,81.38,20.4,79Zm-6.16,3.19c-.62.56-2.47,2.05-2.54,1.73-.28-1.21,2.14-3.59,3-4.52,1-1.15,2-2.29,3-3.41s6-7.36,8.32-7.06C26,70.8,20.13,76,19.19,76.94L16,80.34C15.39,80.93,14.85,81.59,14.24,82.15Z"/><path class="cls-1" d="M25.42,77.42c-2.39,2.51-4.78,5-7.1,7.61-1.76,2-2.89,3-2.55,5.62h0s0,.09,0,.14a.88.88,0,0,0,.54.73C19.58,94.38,25.16,86.87,27,85S36.05,77,34.19,73.54C32,69.48,26.72,76.06,25.42,77.42ZM18,89.72c.21-2.66,5-6.46,6.66-8.17.92-1,6-7.06,6.83-6.18C32.76,76.73,20.17,89.21,18,89.72Z"/><path class="cls-1" d="M90.43,73.66C81.09,64.26,71,55.65,60.9,47q8.86-8.78,17.59-17.69c1.32-1.35,2.62-2.92,4-4.16,2-1.79,3.09-1.5,5.59-2a5.26,5.26,0,0,0,2.2-.63c2.69-1.78,4.68-7.17,6.09-10s1.26-3.35-.92-5.67-3.19-4-6-2.52C86.18,6.11,81,8.24,78.51,11a4.3,4.3,0,0,0-1,1.89q0,1,0,2a7.89,7.89,0,0,1-2.77,4.41c-1.12,1.32-2.51,2.49-3.73,3.72Q62.26,31.8,53.55,40.59c-4.7-4.13-9.35-8.33-13.84-12.67,4.26-6.24,4.92-14.29.22-20.53C35,.89,28.32-1,20.64.51a1.52,1.52,0,0,0-.9,2.22c1.47,2.47,2.87,5,4.27,7.49a27.64,27.64,0,0,0,1.45,2.61A3.54,3.54,0,0,1,26,14.05c-.5,2.45-1.88,5.1-2.9,7.48l-4.33-.21c-.91,0-2.47-.43-3.35-.16l-.12,0C13,17.64,10.94,13.93,8.8,10.3A1.53,1.53,0,0,0,6.43,10C.12,15.64,0,26,5.15,32.5c5.94,7.48,14.67,8.28,23.12,5.83q6.77,7,13.56,14L40.3,53.82c-1.81-1.7-3.65-3.37-5.55-5a1.55,1.55,0,0,0-2.14,0A17.64,17.64,0,0,0,29,53.18c-1.2,2.37-.07,4.76-.95,7.23-.29.9-6,1-7.32,1.59-2.21,1-4.21,3.08-6,4.71a79.46,79.46,0,0,0-7,7.49C6.17,76.14,3.42,78.7,2.31,81c-1.64,3.38,2,6.21,4.16,8.6,2.82,3.18,6.84,8.1,10.65,9.94,4.17,2,7.09-2.81,9.7-5.43C30.74,90.15,35,86.21,38.31,81.7a7.84,7.84,0,0,0,1.8-4.16c.33-3.19-1.09-4.53,3.11-5.11,3.75-.52,5.92-2.06,8.57-4.93a1.54,1.54,0,0,0,0-2.14q-2.31-2.46-4.67-4.86l1.36-1.33Q57,68,65.53,76.76q4.61,4.74,9.23,9.46c3.09,3.15,6.13,7,10.27,8.74,5.87,2.41,11.6-.92,13.21-6.89S94.19,77.46,90.43,73.66Zm-21-45.8c3-3,8.78-6.87,10.14-11,.35-1.06-.13-3.35.13-3.86.57-1.11,3.47-2.3,4.46-2.89,1.6-1,3.21-1.89,4.82-2.83,2.14-1.25,2.17-1.57,3.9.17,1.37,1.37,2.19,1.81,1.77,3.62-.36,1.55-1.79,3.33-2.59,4.7s-1.56,3.36-2.7,4.36-3,.87-4.57,1.19c-4.44.91-7.53,6-10.58,9.12q-7.45,7.59-15,15.06l-3.91-3.41Q62.34,35,69.42,27.87ZM15.1,21.23c-.65.14-.4-.14,0,0ZM46.94,68c-2.45,1.75-3.95,1-6.61,1.38s-3.41,1.82-3.46,4.32c0,2.12.54,3.75-.56,5.73s-3.12,3.75-4.66,5.4c-1.87,2-3.8,4-5.73,5.93q-1.85,1.87-3.72,3.73c-1.41,1.41-1.38,1.85-3.46,1.57-3.44-.46-7.41-5.57-9.74-8.14-1.44-1.59-3.89-3.67-3.46-6,.39-2.13,4.49-5.72,6-7.45,3.28-3.77,7.88-9.69,13.09-10.13,2.61-.22,5.38-.13,6.34-3.1.74-2.07,0-3.93.49-5.92A7.78,7.78,0,0,1,33.73,52C39,56.51,43.87,61.4,48.63,66.44A12.75,12.75,0,0,1,46.94,68Zm-1.42-9.07q-1.77-1.77-3.57-3.5l1.46-1.45,3.5,3.61ZM94.79,86.52c-.39,4.05-2.94,7.13-7.53,6-3.36-.8-5.9-4-8.24-6.33-12.31-12.41-24.4-25-36.56-37.59L29.79,35.55l0,0a1.31,1.31,0,0,0-1.43-.36C21.45,37.34,15,37.65,9.19,32.4,4,27.69,2.84,19.06,7.23,13.57l3.12,5.23c.77,1.29,1.69,4,3,4.88,2.47,1.66,7.83.77,10.75.92a1.55,1.55,0,0,0,1.46-1.11c1-2.65,3.76-7,3.59-9.86-.08-1.33-1.37-2.87-2-4q-1.83-3.28-3.7-6.54a14.47,14.47,0,0,1,13.5,5.34c4.87,5.69,3.81,13.24-.53,18.9a1.51,1.51,0,0,0,.24,1.83c13,12.68,26.86,24.38,40.44,36.41,5.45,4.83,11.07,9.57,15.76,15.17C94.69,82.95,95.1,83.34,94.79,86.52Z"/><path class="cls-1" d="M89.77,81c-2-1.49-4.57-.44-6,1.35a1.13,1.13,0,0,0-.24.31,1.07,1.07,0,0,0-.19.47A4.62,4.62,0,0,0,85,88.86c2.17,1.3,5,.31,6.43-1.61C93.14,85,91.77,82.43,89.77,81Zm-.48,5.31a2.75,2.75,0,0,1-3,.74,2.37,2.37,0,0,1-.85-3.23c.76-1.07,2.14-1.67,3.22-.79S90.49,85.13,89.29,86.27Z"/></svg>