<svg id="Layer_1" data-name="Layer 1" xmlns="http://www.w3.org/2000/svg" viewBox="0 0 100 100"><defs><style>.cls-1{fill:#4d4d4d;}</style></defs><title>16</title><path class="cls-1" d="M48.84,35A14.86,14.86,0,0,0,35.48,50.24c.23,7.66,7.65,14.42,15.36,14.31a1.55,1.55,0,0,0,.35,0c8-.77,13.6-6,13-14.36C63.58,42.34,57.66,34.12,48.84,35ZM59.48,57.07c-2.75-6.47-5.71-12.82-9-19a10.28,10.28,0,0,1,2.37.5c2.86,5,4.8,10.37,7.85,15.22a1.22,1.22,0,0,0,.14.18A10.11,10.11,0,0,1,59.48,57.07ZM61,48.3a15.27,15.27,0,0,1,.21,1.93c-1.74-3.18-3.18-6.52-4.82-9.76A13.17,13.17,0,0,1,61,48.3ZM48.08,38.11v0c3.59,6.71,6.79,13.59,9.75,20.6a1.14,1.14,0,0,0,.08.14,10,10,0,0,1-1.8,1.28L45.61,38.78a10.55,10.55,0,0,1,2-.61ZM47.14,61,39.27,45.05a12.1,12.1,0,0,1,1.13-2q4.21,9.49,9.28,18.55A11.26,11.26,0,0,1,47.14,61Zm5,.52A224.83,224.83,0,0,1,42,41.19a12,12,0,0,1,1.72-1.38L54.11,61A13.16,13.16,0,0,1,52.14,61.51ZM38.45,51.06a10,10,0,0,1,0-2.85l5.46,11.05A13.13,13.13,0,0,1,38.45,51.06Z"/><path class="cls-1" d="M74.33,20.78C63.24,10.77,44,9.71,31.24,16.67,18.62,23.55,9.13,40.33,12,54.77a57.08,57.08,0,0,0,4,12.85C18,71.76,21.42,75,24.74,78.11a37.18,37.18,0,0,0,24.79,9.95c15.73-.56,30.62-9.18,36.61-24.17C92.07,49.05,85.94,31.26,74.33,20.78Zm1,5.41a48.09,48.09,0,0,1,9.08,16.55L74.1,24.8C74.53,25.25,74.94,25.71,75.33,26.2Zm9.12,33.92c-2.84-4.93-5.39-10-8.29-14.91A28.72,28.72,0,0,0,69.1,32.06C66.43,27,63.78,21.91,60.89,17q1.18.36,2.34.8c8.26,12.67,14.59,26.43,21.88,39.64C84.93,58.33,84.72,59.23,84.46,60.11Zm-1.81,4.69c-2-3.47-4.14-6.84-6-10.36.07-.54.13-1.08.17-1.63s.06-1.35.05-2c2.21,4,4.32,8.1,6.67,12C83.24,63.51,83,64.17,82.65,64.81Zm-2.27,3.93q-2.48-4.34-5.32-8.45a23.39,23.39,0,0,0,.88-2.56c1.8,3.13,3.74,6.18,5.49,9.34Q80.92,67.92,80.37,68.74ZM49,73.34c-6-.46-11.85-2.37-16.39-6.54-4.72-4.34-6.5-11.9-6.27-18.13.5-13.58,14.25-24.34,27.62-21.9C65.55,28.87,74.3,40.15,73.88,51.89,73.4,65.21,61.4,73.49,49,73.34Zm21.89,4.8q-2.18-3.63-4.44-7.22.94-.67,1.81-1.41a73.42,73.42,0,0,1,4.58,7.21Q71.92,77.45,70.92,78.13Zm-4.07,2.43c-1.44-2.44-3-4.81-4.47-7.24q1.17-.56,2.27-1.22,2.25,3.58,4.43,7.21C68.35,79.76,67.6,80.17,66.84,80.56Zm-4.39,2c-1.47-2.53-3-5-4.6-7.47q1.27-.37,2.5-.85c1.47,2.46,3.06,4.85,4.52,7.32Q63.68,82.06,62.45,82.52Zm-4,1.29-5-7.83q1.08-.15,2.14-.37c1.63,2.51,3.22,5.06,4.73,7.64Q59.39,83.55,58.43,83.81Zm-4.52.92a98,98,0,0,1-5.39-8.53l.51,0c.67,0,1.33,0,2,0l5.15,8.13C55.43,84.49,54.67,84.62,53.91,84.73Zm-4.37.41-.48,0c-2-3.19-4-6.44-5.8-9.74q1.27.3,2.57.5C47.56,79,49.41,82.08,51.45,85,50.81,85.07,50.17,85.12,49.53,85.14Zm-13.21-3L15.17,42.89c.16-.7.35-1.39.55-2.08,2.77,5,5.55,10,8.29,15.09.92,4.91,3,9.68,6.57,13,.44.41.9.78,1.36,1.15q4.1,6.85,8.31,13.64A32.9,32.9,0,0,1,36.33,82.15ZM30.77,79C24.84,69.14,19.42,59.3,14.34,49c0-.31,0-.62,0-.93q.06-.87.17-1.73l18.31,34Q31.8,79.69,30.77,79ZM17.5,36.05c.7,1.3,1.56,2.53,2.31,3.8,1.35,2.3,2.59,4.66,3.77,7.05-.06.58-.11,1.17-.13,1.76s0,1.09,0,1.65L16.67,38C16.93,37.35,17.21,36.7,17.5,36.05Zm2.88-5.18a99.48,99.48,0,0,1,4.86,9.45,24.67,24.67,0,0,0-1,3c-.66-1.27-1.33-2.53-2-3.77-1.12-2-2.68-3.89-3.43-6Q19.52,32.18,20.39,30.87Zm3-3.86a83.08,83.08,0,0,1,4.78,8.07,26.43,26.43,0,0,0-1.66,2.67,99.5,99.5,0,0,0-4.68-8.82C22.29,28.28,22.81,27.63,23.35,27Zm3.22-3.23C28,26.42,29.56,29,31,31.67c-.49.49-.95,1-1.4,1.52a83.09,83.09,0,0,0-4.72-7.82Q25.71,24.55,26.57,23.78Zm3.68-2.87c1.36,2.62,2.85,5.17,4.23,7.79q-.94.68-1.83,1.44c-1.43-2.61-2.94-5.18-4.38-7.79C28.92,21.84,29.58,21.37,30.25,20.91Zm7.8-4q1.94,4,4.24,7.79c-.68.22-1.35.47-2,.74l-4.2-7.75C36.72,17.44,37.38,17.18,38.05,16.94Zm4.63-1.26c1.75,2.52,3,5.34,4.47,8a25.72,25.72,0,0,0-2.66.45q-2.35-3.83-4.33-7.86Q41.4,15.93,42.68,15.69Zm4.89-.55a88,88,0,0,0,4.76,8.49,24.67,24.67,0,0,0-2.73-.1c-1.63-2.67-2.84-5.57-4.53-8.21Q46.3,15.17,47.56,15.13ZM34.15,18.76l4.13,7.62q-1,.51-2,1.1c-1.37-2.6-2.86-5.14-4.21-7.75q1-.58,2-1.09A1.18,1.18,0,0,0,34.15,18.76Zm9,65.51q-3.56-5.72-7-11.5a28.5,28.5,0,0,0,4.11,1.76c1.92,3.53,4,7,6.1,10.39q-1.58-.18-3.1-.49A1.19,1.19,0,0,0,43.19,84.27Zm14.69-68.1c2.36,3.92,4.55,7.93,6.69,12a27,27,0,0,0-3.32-2c-2.18-3.48-4.19-7.07-6.33-10.58C55.91,15.76,56.9,15.95,57.88,16.17Zm8.94,3.21c.89.46,1.75,1,2.58,1.52a1.15,1.15,0,0,0,.12.31L85.16,48.45a1.05,1.05,0,0,0,.4.4c.08.87.13,1.74.13,2.62s0,1.52-.09,2.26C79.39,42.25,73.73,30.45,66.82,19.38Zm-14.66-4.1c2,3.12,3.77,6.33,5.66,9.48a25,25,0,0,0-2.61-.71A92,92,0,0,1,50,15.14C50.72,15.17,51.44,15.22,52.15,15.28ZM23.09,72.35C19,68,15.82,61.18,14.73,54.62,18.29,61.6,22,68.41,26,75.17Q24.51,73.83,23.09,72.35Zm51.49,2.95a73.44,73.44,0,0,0-4.5-7,1.18,1.18,0,0,0-.22-.23c.46-.46.9-.93,1.32-1.43q2.31,3.75,4.73,7.44Q75.27,74.69,74.59,75.29Zm2.89-2.86q-2.5-3.79-4.86-7.67A23.58,23.58,0,0,0,74,62.58q2.66,4,5,8.1C78.49,71.28,78,71.86,77.48,72.43Z"/><path class="cls-1" d="M98.67,38.66C96.19,29.2,90.28,21,83.16,14.4,75.79,7.62,66.86,1.72,56.69.67c-10.81-1.12-24,.17-33.11,6.5C5.86,19.48-3.42,38.83,1.16,60.43,6.08,83.57,26.92,99.71,50.37,99.7c19.63.12,37.32-10,44.92-28.44C99.52,61,101.52,49.55,98.67,38.66ZM95.11,63.07c-3,10.42-8.3,19.78-17.42,25.91a48.37,48.37,0,0,1-27.32,7.8C31,96.79,13.21,85.26,6.17,67,2.56,57.69,1.68,46.15,4.45,36.45c2.57-9,8-16,14.88-22.11,3.63-3.23,7.5-6.41,12.09-8.17,5.28-2,11.22-2.35,16.81-2.68C59.06,2.86,68,6,76.49,12.62,92.51,25,100.85,43,95.11,63.07Z"/><path class="cls-1" d="M39.21,33.83c1.11-.84,0-2.74-1.1-1.89a26.3,26.3,0,0,0-4.59,4.38c-.88,1.08.66,2.64,1.55,1.55A24.12,24.12,0,0,1,39.21,33.83Z"/><path class="cls-1" d="M37.63,36.59c-.94,1,.6,2.59,1.55,1.55a12.65,12.65,0,0,1,3.1-2.52,1.09,1.09,0,0,0-1.1-1.89A14.59,14.59,0,0,0,37.63,36.59Z"/></svg>