<svg id="Layer_1" data-name="Layer 1" xmlns="http://www.w3.org/2000/svg" viewBox="0 0 100 100"><defs><style>.cls-1{fill:#4d4d4d;}</style></defs><title>17</title><path class="cls-1" d="M80.86,74c0-6.62-.14-13.24-.33-19.85-.37-12.6-.89-25.21-1.64-37.8-.52-8.73-3.88-14-13-15.4C55.78-.57,45.07,0,34.86.65c-4.58.28-9.26.72-12,4.86S20,15.37,19.54,20.07c-1.27,13.19.18,26.64-.13,39.9,0,8.71-.32,17.51.46,26.2.49,5.43,1.62,9.6,6.84,12.36,3.62,1.91,9.15,1.41,13,1.44,6.93.05,13.86-.41,20.79-.57,7.9-.17,18.46.2,20-9.89C81.31,84.51,80.87,79.08,80.86,74ZM77.69,88.91c-1.4,7.31-8.25,7.51-14.33,7.57-9.76.09-19.54,1-29.3.45-3.93-.23-8.57-1.24-10.43-5.24-1.12-2.42-1-5.76-1.11-8.36-.44-7.78-.29-15.58-.26-23.36q.31-13-.22-26a100.53,100.53,0,0,1,.35-13.87c.52-5.33.57-13.43,6.51-15.77,3.91-1.54,9.47-1,13.66-1.15S51.2,3,55.51,3.09c4.06.13,8.48.11,12.41,1.18C74.18,6,75.66,10.38,76,16.39c1.2,19.49,2,39.07,2,58.6C78,79.46,78.53,84.51,77.69,88.91Z"/><path class="cls-1" d="M44.25,10.29Q50,10,55.67,10a1.08,1.08,0,0,0,0-2.15q-5.71,0-11.42.26C42.88,8.21,42.87,10.36,44.25,10.29Z"/><path class="cls-1" d="M60.43,9.81l.07-.07A1.08,1.08,0,0,0,59,8.22l-.07.07A1.08,1.08,0,0,0,60.43,9.81Z"/><path class="cls-1" d="M64.78,9.87l.07-.07a1.08,1.08,0,0,0-1.52-1.52l-.07.07A1.08,1.08,0,0,0,64.78,9.87Z"/><path class="cls-1" d="M50.8,88.25c-3,0-8.82-.71-9.19,3.57-.35,3.95,6,3.51,8.45,3.44s8.15.21,8.31-3.25C58.58,87.54,53.79,88.21,50.8,88.25Zm5,4c-1,1.1-4.84.86-6.24.87-1,0-5.12.2-5.44-.52-1.23-2.75,5.64-2.22,6.67-2.21S57.79,90,55.82,92.25Z"/><path class="cls-1" d="M74.52,15h0l-.07-.12a1,1,0,0,0-.91-.56c-16,.14-32.11.83-48.17.59a1,1,0,0,0-.94.6l0,0s0,.07,0,.1a1.09,1.09,0,0,0-.09.33c-.71,11.27.43,22.56.2,33.85-.25,12-.94,24-.57,36a1,1,0,0,0,.16.52.93.93,0,0,0,.91.55c8.39-.21,16.75.11,25.14-.35s16.94.11,25.43-.13a1.07,1.07,0,0,0,.48-.12.91.91,0,0,0,.6-.95c-1.11-23.29-.92-46.65-2-69.94A1.1,1.1,0,0,0,74.52,15ZM50.14,84.38c-8,.43-16,.17-24.08.33-.29-11.64.35-23.25.59-34.88.23-10.92-.82-21.85-.24-32.76,15.37.19,30.75-.44,46.11-.59,1,22.57.9,45.22,1.94,67.8C66.34,84.43,58.26,83.94,50.14,84.38Z"/><path class="cls-1" d="M36.59,22.65a21.83,21.83,0,0,0-5.12,6.09,1.08,1.08,0,0,0,1.86,1.08,20.2,20.2,0,0,1,4.78-5.66C39.18,23.29,37.65,21.78,36.59,22.65Z"/><path class="cls-1" d="M41.26,23.41,37.36,28c-.89,1,.62,2.58,1.52,1.52l3.9-4.58C43.67,23.88,42.16,22.35,41.26,23.41Z"/></svg>