<svg id="Layer_1" data-name="Layer 1" xmlns="http://www.w3.org/2000/svg" viewBox="0 0 100 100"><defs><style>.cls-1{fill:#4d4d4d;}</style></defs><title>18</title><path class="cls-1" d="M94,49.7C87.4,43.4,81,36.87,74.71,30.32s-12.5-13-19-19.24c-2.07-2-4.73-5.84-7.59-6.77-2-.66-4.76.17-6.82.49l-.18,0A6.85,6.85,0,0,0,39.07,4c-2.75-.57-6.31.24-9.1.44-5.52.38-11,.87-16.51,1.64C9.29,6.69,3.74,6.2,2.65,11A128.66,128.66,0,0,0,.59,26.89c-.46,4.82-1,10.7-.19,15.5,1.31,8.07,10.94,15,16.5,20.08,7.61,7,14.9,14.35,22.31,21.56,3,2.91,6,5.83,9.09,8.6,1.25,1.11,3.08,3.18,4.85,3.51a1.6,1.6,0,0,0,.42,0,1.65,1.65,0,0,0,.36,0,7.56,7.56,0,0,0,3.21-2c5.12,5.61,11.72-3.62,15.28-7,4.65-4.46,9.21-9,13.72-13.63,4.21-4.29,9.07-8.53,12.67-13.35C102.3,55.47,97.24,52.83,94,49.7ZM53.56,93.17c-1.14-.46-2.34-1.9-3.16-2.63-2.23-2-4.37-4-6.51-6.11C38.31,79.06,32.82,73.6,27.26,68.21c-5.82-5.63-12-10.9-17.6-16.79-2.82-3-5.85-6.16-6.36-10.35a66.52,66.52,0,0,1,.1-12.49c.35-4.72.61-10,1.83-14.64s3.22-4.12,7.21-4.72C15.88,8.7,19.33,8.32,22.78,8c4.44-.41,10.11-1.74,14.51-1,5.6.9,11.34,8.84,15.17,12.7,7.64,7.7,15.08,15.6,22.72,23.3,3.74,3.77,7.52,7.5,11.38,11.14,2.1,2,3.36,2.85,1,5.48C86.34,61,85,62.38,83.68,63.77q-8.95,9.46-18.22,18.6c-2.55,2.5-5.11,5-7.76,7.37C56.67,90.66,55,92.64,53.56,93.17ZM97,57.61c-.09.63-2,2.31-2.46,2.83Q84.42,71.29,73.79,81.66c-2.83,2.77-5.68,5.53-8.62,8.18-1.88,1.69-3.67,4.34-5.77,2.35,2.06-1.82,4-3.73,6-5.64C72.22,80,78.83,73.18,85.35,66.3c2-2.11,6.31-5.4,7-8.39.79-3.43-4.45-6.59-6.47-8.53-9.64-9.27-18.78-19-28.14-28.57-4.3-4.39-8.69-8.7-13.11-13l-.56-.55a6.84,6.84,0,0,1,2.09-.14c2.06.29,4.08,2.71,5.51,4.08q3.66,3.51,7.23,7.11c4.84,4.85,9.59,9.79,14.35,14.72s9.65,10,14.6,14.82c2.42,2.38,5.39,4.6,7.52,7.22C96,55.9,97.21,56.28,97,57.61Z"/><path class="cls-1" d="M21.51,17.93c-1-3.77-4.6-4.24-7.81-3.09a1.55,1.55,0,0,0-.4.16,6.6,6.6,0,0,0-3,8c1.23,3.19,4.12,4.49,7.17,2.86C20.19,24.42,22.39,21.13,21.51,17.93Zm-5.1,5.14c-1.62,1.06-2.9.55-3.49-1.31a3.62,3.62,0,0,1,1.79-4.16c1.63-.56,3.62-.9,4,1.36C19,20.62,17.7,22.22,16.41,23.07Z"/><path class="cls-1" d="M35.79,39.78c-.54-2-1.86-3.71-2.38-5.72-.91-3.5,4-5.41,5.9-2.58a5,5,0,0,1,.9,3c-.09,1.9,2.86,1.9,3,0,.27-5.48-7-11.13-11.46-6.32-2.28,2.45-1.55,5.87-.41,8.64a28.25,28.25,0,0,1,1.65,3.73c.85,3.5-2.12,6-5.62,4.91-4-1.28-7.19-6.33-4.66-10.09,1.07-1.58-1.49-3.06-2.55-1.49-4.56,6.76,4.49,18.19,12.11,14.79C35.58,47.18,36.69,43.1,35.79,39.78Z"/><path class="cls-1" d="M47,51l-3.64-3.49c.79-.81,1.6-1.61,2.44-2.36,1.52-1.35,1.82-1.76,4-1.58,2.35.19,3.22,1.14,4.8,2.81,1.31,1.38,3.4-.71,2.09-2.09-2.2-2.32-4.84-4.71-8.28-4.12s-6.64,4.66-9,7.14c-1.92,2.06-5.51,5-5.16,8.19s4.06,6.55,6.62,8.27c1.59,1.06,3.07-1.5,1.49-2.55a12.31,12.31,0,0,1-2.71-2.35c-.88-1.09-2.38-3.46-2.14-4.85.2-1.14,2.42-3.16,3.73-4.4L44.9,53.1C46.27,54.42,48.37,52.33,47,51Z"/><path class="cls-1" d="M68.61,56.26a1.64,1.64,0,0,0-.17-.22L68.38,56c-8.31-9.31-28.41,5.12-20,16.19C57.16,83.79,75.45,67,68.61,56.26Zm-2.47,1.65c4.84,8-10,21.67-15.86,11.85C45.51,61.74,60.25,51.73,66.14,57.91Z"/><path class="cls-1" d="M29.81,17.78l10.29-.09a1.11,1.11,0,0,0,0-2.22l-10.29.09A1.11,1.11,0,0,0,29.81,17.78Z"/><path class="cls-1" d="M35.62,19.41c-1.43-.07-1.42,2.15,0,2.22a25.87,25.87,0,0,0,5.92-.41c1.4-.26.81-2.39-.59-2.14A23.28,23.28,0,0,1,35.62,19.41Z"/><path class="cls-1" d="M56.36,79.85q-3.52.35-7.05.47c-1.42,0-1.43,2.26,0,2.22q3.53-.12,7.05-.47C57.77,81.93,57.78,79.71,56.36,79.85Z"/><path class="cls-1" d="M54.35,83.72A13.33,13.33,0,0,1,52,84.3a1.12,1.12,0,0,0-.77,1.36,1.14,1.14,0,0,0,1.36.77,13.34,13.34,0,0,0,2.33-.58,1.14,1.14,0,0,0,.77-1.36A1.12,1.12,0,0,0,54.35,83.72Z"/></svg>