<svg id="Layer_1" data-name="Layer 1" xmlns="http://www.w3.org/2000/svg" viewBox="0 0 100 100"><defs><style>.cls-1{fill:#4d4d4d;}</style></defs><title>19</title><path class="cls-1" d="M23,82.23c4.21.06,8.95.58,9.42-4.57.58-6.28.11-12.88.16-19.19,0-3,1.74-10.17-2.07-11.61-2.17-.82-5.7-.41-8-.68A46.7,46.7,0,0,0,15.61,46c-4,.12-6,.35-6,4.69,0,6.14-.55,12.28-.5,18.43C8.84,71.92,8.37,77.61,10,80,12.33,83.64,19.57,82.18,23,82.23ZM15.12,49c3.18-.33,6.3.19,9.44.5,1.34.13,4.11-.36,5,.7.71.89,0,5.71,0,6.78q0,5.54-.1,11.08,0,3.39-.05,6.79c0,3.76-1.18,4.41-5,4.37-2.33,0-7.15.82-9.94-.17a16.91,16.91,0,0,0,2.14-2.16c.93-1.13-.68-2.75-1.62-1.62a15.79,15.79,0,0,1-2.36,2.3s-.06-.09-.08-.14a11,11,0,0,1-.54-3.63l3.8-3.29c1.11-1-.51-2.57-1.62-1.62L12,70.76c0-.63.08-1.21.12-1.68,0-.68,0-1.35,0-2,1.51-1.44,3.08-2.82,4.73-4.12,1.15-.91-.47-2.52-1.62-1.62s-2,1.66-3,2.53c0-.86.09-1.72.14-2.58l4.16-3.41c1.14-.93-.49-2.54-1.62-1.62l-2.38,1.95c0-.51.06-1,.08-1.53s0-.82,0-1.23l3.64-2.69c1.17-.86,0-2.85-1.15-2l-2.52,1.86c0-.39,0-.78,0-1.17C12.83,49.31,12.87,49.25,15.12,49Z"/><path class="cls-1" d="M41.51,79.36C43,82.8,47.72,82,50.72,81.94S60.33,83,63,81s1.23-9.2,1.25-12.05q.05-10.21.1-20.43,0-5,.05-9.94c0-1.53.49-4.26-.43-5.66C62.31,30.46,56.31,31.29,53.8,31s-8.91-1.17-11.24.56-1.09,8.55-1.15,11.19c-.17,7.1-.62,14.19-.54,21.3A68,68,0,0,0,41,72.81C41.06,74.72,40.71,77.52,41.51,79.36Zm2.88-44.79c1.42-2.11,9.38-.46,11.39-.23,2.27.26,4.69-.5,5.55,1.5.77,1.78,0,6,0,7.94q0,9-.09,17.94,0,4.39,0,8.78c0,1.54.82,6.3-.08,7.6s-8.19,1.27-12.19,1l3.32-2.4c1.18-.85,0-2.84-1.15-2l-5.42,3.91a2.36,2.36,0,0,1-1.46-1.76c2.2-1.67,4.36-3.39,6.45-5.18,1.12-1-.5-2.57-1.62-1.62-1.63,1.39-3.3,2.73-5,4,0-.45,0-.9,0-1.36s0-.92-.07-1.38a42,42,0,0,1,6.71-6c1.19-.85,0-2.83-1.15-2a45.24,45.24,0,0,0-5.68,4.78q0-1.19,0-2.4a52,52,0,0,1,5.73-5.33c1.15-.92-.48-2.52-1.62-1.62a52,52,0,0,0-4,3.58q0-1.81,0-3.62a30.82,30.82,0,0,1,5.38-4.48c1.23-.8.08-2.78-1.15-2A33.85,33.85,0,0,0,44,55.63q0-1.42.1-2.83a32.34,32.34,0,0,1,5.48-4.7c1.21-.82.07-2.8-1.15-2a35.59,35.59,0,0,0-4.21,3.35q0-.7.05-1.41c0-.5,0-1,0-1.51a24.52,24.52,0,0,1,5-4.67c1.2-.83.06-2.82-1.15-2A27.39,27.39,0,0,0,44.44,43c0-.74,0-1.47,0-2.21a29.13,29.13,0,0,1,4.33-3.67c1.2-.83.06-2.81-1.15-2a32.86,32.86,0,0,0-3.29,2.59C44.24,36.55,44.09,35,44.39,34.57Z"/><path class="cls-1" d="M73.77,76.68c.2,2.45.49,4,2.94,4.91s5.56.6,8.13.68c3.12.09,6.65.32,9.59-1,3.88-1.73,2.29-8.21,2.31-11.86q.06-11.23.12-22.46T97,24.21C97,21,98.65,13,94.9,11.58c-2.61-1-6.62-.61-9.46-.86-2.57-.23-6.32-.49-8.86.2-4,1.11-2.46,6.92-2.48,10.25C74,35.46,73.3,49.76,73.52,64A82.57,82.57,0,0,0,73.77,76.68Zm3.29-61.3c.58-2.4,4.9-1.8,7.23-1.69,1.92.09,6.76,0,8.38.74C94.51,15.28,94,16.86,94,19q0,7.8-.08,15.6-.09,18.13-.19,36.26c0,1.65.68,5.26,0,6.76-1.12,2.43-6.68,1.64-8.84,1.57-1.25,0-2.72.09-4.06,0,.47-.43.93-.86,1.36-1.33,1-1.08-.62-2.7-1.62-1.62a21.12,21.12,0,0,1-2.43,2.25,2.76,2.76,0,0,1-.63-.54c1.08-1.2,2.19-2.36,3.37-3.47s-.54-2.62-1.62-1.62c-.9.84-1.76,1.73-2.6,2.63q-.16-1-.25-2.15l4-3.3c1.14-.93-.49-2.54-1.62-1.62l-2.49,2c0-.46,0-.93,0-1.39q3-2.26,6-4.64c1.14-.93-.48-2.53-1.62-1.62-1.39,1.13-2.8,2.22-4.23,3.3,0-.74.09-1.46.15-2.14,0-.36,0-.72,0-1.08a46.35,46.35,0,0,1,4.86-3.83c1.21-.82.07-2.81-1.15-2S77.75,59,76.55,60c0-.81,0-1.63,0-2.44,1.39-1.06,2.78-2.12,4.14-3.22,1.14-.93-.48-2.53-1.62-1.62-.82.67-1.67,1.3-2.5,1.95q0-1.36,0-2.73A40,40,0,0,1,81.42,48c1.2-.83.06-2.81-1.15-2a44.38,44.38,0,0,0-3.62,2.82q0-2,.09-4A40.85,40.85,0,0,1,80.15,42a1.18,1.18,0,0,0,.41-1.56A1.15,1.15,0,0,0,79,40q-1.12.83-2.19,1.73c0-.63,0-1.26,0-1.89a51.43,51.43,0,0,1,5.38-3.59,1.14,1.14,0,0,0-1.15-2c-1.44.83-2.82,1.74-4.16,2.7,0-.9,0-1.81.06-2.71v-.31l3.89-3.48c1.1-1-.52-2.59-1.62-1.62l-2.22,2q0-1.72.06-3.43a33,33,0,0,1,3.3-3,1.15,1.15,0,0,0,0-1.62,1.17,1.17,0,0,0-1.62,0c-.57.44-1.11.92-1.65,1.4q0-1.49,0-3c1.49-1.12,2.93-2.28,4.32-3.52,1.1-1-.52-2.59-1.62-1.62-.9.8-1.82,1.56-2.76,2.31A10.52,10.52,0,0,1,77.06,15.38Z"/><path class="cls-1" d="M98.53,86c-15,.58-30,.64-45.07.34C39.22,86,25,85,10.71,85.24c-1.46,0-4.79.63-5.9-.07C3.49,84.33,3.59,81,3.53,79.76Q3.29,75,3.17,70.2C3,63.87,3,57.54,3.1,51.21c.15-12.91.41-25.81.15-38.72,0-2-3.09-2-3,0C.48,26.68.11,40.87,0,55.06c0,6.75,0,13.5.27,20.25C.44,79.37-1,86.57,4,88.11c2.55.79,5.73.19,8.35.14,3.69-.07,7.35,0,11,.11,8.09.34,16.17.64,24.26.85,17,.44,33.92.45,50.87-.2C100.48,88.93,100.49,85.88,98.53,86Z"/></svg>