<svg id="Layer_1" data-name="Layer 1" xmlns="http://www.w3.org/2000/svg" viewBox="0 0 100 100"><defs><style>.cls-1{fill:#4d4d4d;}</style></defs><title>20</title><path class="cls-1" d="M85.67,44a12.62,12.62,0,0,0-4.51-16,11.78,11.78,0,0,0-14.78,1.62C65.57,13.07,43.95,4.39,29.17,9.25,12.31,14.8,7.95,33.32,15.85,47.37A12.69,12.69,0,0,0,.15,61.87C2,74.94,15.49,75.56,26,75.28c1.92-.05,1.92-3,0-3-7,.19-16.3,1-20.85-5.54-2.34-3.34-3-8.42-1.06-12.11C7,49,14.48,48.5,19.15,52.14A1.49,1.49,0,0,0,21.26,50C10.67,37.52,13.38,17.6,30,12.13,44,7.5,67,16.44,63,34.47c-.34,1.56,2,2.75,2.73,1.15C68,30.9,72.6,27.57,78,29.79c6.1,2.52,8.16,10.91,3,15.49-1.07,1,.06,3,1.45,2.49,12.2-4.79,19.78,13.53,9.61,20.58-5.13,3.56-12.42,4.18-18.51,4.05-1.92,0-1.92,2.95,0,3,9.32.19,22.52-1.67,25.79-12C102.27,54.17,95,43.55,85.67,44Z"/><path class="cls-1" d="M40.32,56.22a1.12,1.12,0,0,0-1.58,0c-2.88,3.44-5.82,6.81-8.51,10.39a1.13,1.13,0,0,0,1,1.68H34c.06,5.77-.1,11.54,0,17.31a1,1,0,0,0,.51.9,1.07,1.07,0,0,0,.6.22,86.76,86.76,0,0,0,9.23,0,1.14,1.14,0,0,0,1.12-1.12c-.1-5.76,0-11.53,0-17.29.81,0,1.61,0,2.43,0s1.52-1,1-1.68C46.09,63.06,43.19,59.66,40.32,56.22ZM36.19,84.53c-.06-5.78.1-11.57,0-17.36a1.14,1.14,0,0,0-1.12-1.12h-1.6c2-2.49,4-4.89,6.05-7.31,2,2.43,4.08,4.86,6.06,7.34l-1.28,0a1.13,1.13,0,0,0-1.12,1.12c0,5.79-.08,11.58,0,17.36C40.85,84.64,38.52,84.62,36.19,84.53Z"/><path class="cls-1" d="M68.89,79.69c-.83,0-1.63,0-2.43,0,0-5.76-.1-11.53,0-17.29a1.14,1.14,0,0,0-1.12-1.12,86.81,86.81,0,0,0-9.23,0,1.07,1.07,0,0,0-.6.22,1,1,0,0,0-.52.9c-.09,5.77.07,11.54,0,17.31H52.23a1.13,1.13,0,0,0-1,1.68C54,85,57,88.28,59.77,91.77a1.12,1.12,0,0,0,1.58,0c2.85-3.33,5.49-6.83,8.33-10.16A1.13,1.13,0,0,0,68.89,79.69ZM54.51,81.93h1.59a1.14,1.14,0,0,0,1.12-1.12c.09-5.78-.07-11.57,0-17.36,2.33-.09,4.66-.11,7,0-.07,5.79,0,11.58,0,17.36a1.13,1.13,0,0,0,1.12,1.12l1.19,0c-2,2.43-3.95,4.91-6,7.33C58.55,86.79,56.48,84.4,54.51,81.93Z"/><path class="cls-1" d="M33.93,19c1.42-.15,1.43-2.39,0-2.24-8.17.86-15,9.94-13.09,18,.34,1.4,2.49.81,2.16-.59C21.45,27.69,27.25,19.73,33.93,19Z"/><path class="cls-1" d="M34.08,21.45a11.2,11.2,0,0,0-5.72,2.82c-1.07,1,.52,2.55,1.58,1.58a9.1,9.1,0,0,1,4.74-2.24C36.1,23.37,35.49,21.22,34.08,21.45Z"/></svg>